<svg width="93" height="14" viewBox="0 0 93 14" fill="none" xmlns="http://www.w3.org/2000/svg">
<g clip-path="url(#clip0_13804_1497)">
<path d="M91.2244 14.28H93.5044V0H91.2244V14.28Z" fill="#E9E6DD"/>
<path d="M89.431 9.69967C89.811 6.59967 87.811 3.65967 84.551 3.65967C81.471 3.65967 79.551 6.17967 79.551 9.11967C79.551 12.2997 81.371 14.5597 84.611 14.5597C86.871 14.5597 88.791 13.2997 89.291 11.0397H87.131C86.731 12.1797 85.931 12.7597 84.611 12.7597C82.711 12.7597 81.831 11.3197 81.831 9.69967H89.431ZM81.831 8.19967C81.891 6.65967 82.971 5.45967 84.551 5.45967C86.091 5.45967 87.071 6.75967 87.151 8.19967H81.831Z" fill="#E9E6DD"/>
<path d="M72.3511 5.63984H74.0711V11.7398C74.1111 13.4598 74.5511 14.3798 76.9311 14.3798C77.4311 14.3798 77.9111 14.2998 78.4111 14.2598V12.4998C78.0911 12.5798 77.7711 12.5798 77.4511 12.5798C76.4311 12.5798 76.3511 12.0998 76.3511 11.1598V5.63984H78.4111V3.93984H76.3511V0.839844H74.0711V3.93984H72.3511V5.63984Z" fill="#E9E6DD"/>
<path d="M66.2754 12.7597C64.2354 12.7597 63.3354 10.8997 63.3354 9.09967C63.3354 7.31967 64.2354 5.45967 66.2754 5.45967C68.3154 5.45967 69.2154 7.31967 69.2154 9.09967C69.2154 10.8997 68.3154 12.7597 66.2754 12.7597ZM66.2754 14.5597C69.5954 14.5597 71.4954 12.2797 71.4954 9.09967C71.4954 5.93967 69.5954 3.65967 66.2754 3.65967C62.9554 3.65967 61.0554 5.93967 61.0554 9.09967C61.0554 12.2797 62.9554 14.5597 66.2754 14.5597Z" fill="#E9E6DD"/>
<path d="M47.3618 14.28H49.8618V7.84H56.3618V14.28H58.8618V0H56.3618V5.68H49.8618V0H47.3618V14.28Z" fill="#E9E6DD"/>
<path d="M36.4197 14.28H38.6997V10.58L40.0597 9.26L43.2197 14.28H45.9997L41.6597 7.74L45.6197 3.94H42.8197L38.6997 8.12V0H36.4197V14.28Z" fill="#E9E6DD"/>
<path d="M24.8752 14.2797H27.1552V8.17967C27.1552 6.65967 28.1352 5.45967 29.6552 5.45967C30.9952 5.45967 31.6352 6.15967 31.6752 7.77967V14.2797H33.9552V7.17967C33.9552 4.85967 32.5352 3.65967 30.2952 3.65967C28.9352 3.65967 27.7552 4.35967 27.0752 5.49967L27.0352 5.45967V3.93967H24.8752V14.2797Z" fill="#E9E6DD"/>
<path d="M20.1421 10.7997C20.1421 12.2397 18.5821 12.7597 17.5821 12.7597C16.7821 12.7597 15.4821 12.4597 15.4821 11.4397C15.4821 10.2397 16.3621 9.87967 17.3421 9.71967C18.3421 9.53967 19.4421 9.55967 20.1421 9.09967V10.7997ZM22.4221 6.65967C22.4221 4.47967 20.3021 3.65967 18.2821 3.65967C16.0021 3.65967 13.7421 4.43967 13.5821 7.09967H15.8621C15.9621 5.97967 16.8621 5.45967 18.1421 5.45967C19.0621 5.45967 20.2821 5.67967 20.2821 6.85967C20.2821 8.19967 18.8221 8.01967 17.1821 8.31967C15.2621 8.53967 13.2021 8.95967 13.2021 11.5397C13.2021 13.5597 14.8821 14.5597 16.7421 14.5597C17.9621 14.5597 19.4221 14.1797 20.3221 13.2997C20.5021 14.2397 21.1621 14.5597 22.0821 14.5597C22.4621 14.5597 23.1821 14.4197 23.5221 14.2997V12.7197C23.2821 12.7597 23.1021 12.7597 22.9621 12.7597C22.5421 12.7597 22.4221 12.5397 22.4221 11.9797V6.65967Z" fill="#E9E6DD"/>
<path d="M2.5 7.78H6.92C8.44 7.78 9.32 8.58 9.32 9.98C9.32 11.42 8.44 12.24 6.92 12.24H2.5V7.78ZM0 14.28H6.56C10.26 14.28 11.82 12.54 11.82 10.3C11.82 8.36 10.88 7 9.14 6.62V6.58C10.44 6.02 11.18 4.98 11.18 3.54C11.18 1.16 9.5 0 6.94 0H0V14.28ZM2.5 2.04H6.58C7.94 2.04 8.68 2.56 8.68 4C8.68 5.28 7.78 5.98 6.58 5.98H2.5V2.04Z" fill="#E9E6DD"/>
</g>
<defs>
<clipPath id="clip0_13804_1497">
<rect width="93" height="14" fill="white"/>
</clipPath>
</defs>
</svg>
