<svg width="175" height="175" viewBox="0 0 175 175" fill="none" xmlns="http://www.w3.org/2000/svg">
<path d="M87.5 0L138.931 16.711L170.717 60.461V114.539L138.931 158.289L87.5 175L36.0688 158.289L4.28255 114.539V60.461L36.0688 16.711L87.5 0Z" fill="#FCD043"/>
<path d="M120.251 93.0004H121.951L123.111 87.5804C123.331 86.5604 123.491 85.9404 124.211 85.2404C124.811 84.5604 125.811 83.9204 126.751 83.9204C127.671 83.9204 128.191 84.4204 128.191 85.2804C128.191 85.5204 128.051 86.3004 127.871 87.1004L126.631 93.0004H128.331L129.471 87.6604C129.651 86.7804 129.871 85.9404 130.431 85.3404C131.011 84.6004 132.071 83.9204 133.031 83.9204C133.931 83.9204 134.611 84.5204 134.611 85.3204C134.611 85.6204 134.531 86.1204 134.451 86.4404L133.011 93.0004H134.711L136.011 86.8004C136.151 86.2204 136.311 85.3404 136.311 84.7404C136.311 83.0604 134.891 82.4204 133.431 82.4204C132.051 82.4204 130.691 83.1804 129.891 84.2804C129.591 82.9404 128.591 82.4204 127.291 82.4204C125.871 82.4204 124.571 83.1604 123.691 84.2404L123.651 84.2004L124.031 82.6604H122.451L120.251 93.0004Z" fill="#1B3B36"/>
<path d="M120.251 93.0004H121.951L123.111 87.5804C123.331 86.5604 123.491 85.9404 124.211 85.2404C124.811 84.5604 125.811 83.9204 126.751 83.9204C127.671 83.9204 128.191 84.4204 128.191 85.2804C128.191 85.5204 128.051 86.3004 127.871 87.1004L126.631 93.0004H128.331L129.471 87.6604C129.651 86.7804 129.871 85.9404 130.431 85.3404C131.011 84.6004 132.071 83.9204 133.031 83.9204C133.931 83.9204 134.611 84.5204 134.611 85.3204C134.611 85.6204 134.531 86.1204 134.451 86.4404L133.011 93.0004H134.711L136.011 86.8004C136.151 86.2204 136.311 85.3404 136.311 84.7404C136.311 83.0604 134.891 82.4204 133.431 82.4204C132.051 82.4204 130.691 83.1804 129.891 84.2804C129.591 82.9404 128.591 82.4204 127.291 82.4204C125.871 82.4204 124.571 83.1604 123.691 84.2404L123.651 84.2004L124.031 82.6604H122.451L120.251 93.0004Z" fill="black" fill-opacity="0.2"/>
<path d="M110.907 88.9004C110.907 86.7604 112.267 83.9204 114.867 83.9204C116.727 83.9204 117.587 85.2204 117.587 86.8404C117.587 88.8804 116.227 91.7404 113.747 91.7404C111.887 91.7404 110.907 90.6004 110.907 88.9004ZM109.207 88.9204C109.207 91.4204 110.847 93.2404 113.567 93.2404C117.187 93.2404 119.287 90.0804 119.287 86.7004C119.287 83.9404 117.747 82.4204 114.987 82.4204C111.367 82.4204 109.207 85.5404 109.207 88.9204Z" fill="#1B3B36"/>
<path d="M110.907 88.9004C110.907 86.7604 112.267 83.9204 114.867 83.9204C116.727 83.9204 117.587 85.2204 117.587 86.8404C117.587 88.8804 116.227 91.7404 113.747 91.7404C111.887 91.7404 110.907 90.6004 110.907 88.9004ZM109.207 88.9204C109.207 91.4204 110.847 93.2404 113.567 93.2404C117.187 93.2404 119.287 90.0804 119.287 86.7004C119.287 83.9404 117.747 82.4204 114.987 82.4204C111.367 82.4204 109.207 85.5404 109.207 88.9204Z" fill="black" fill-opacity="0.2"/>
<path d="M99.4227 88.9004C99.4227 86.7604 100.783 83.9204 103.383 83.9204C105.243 83.9204 106.103 85.2204 106.103 86.8404C106.103 88.8804 104.743 91.7404 102.263 91.7404C100.403 91.7404 99.4227 90.6004 99.4227 88.9004ZM97.7227 88.9204C97.7227 91.4204 99.3627 93.2404 102.083 93.2404C105.703 93.2404 107.803 90.0804 107.803 86.7004C107.803 83.9404 106.263 82.4204 103.503 82.4204C99.8827 82.4204 97.7227 85.5404 97.7227 88.9204Z" fill="#1B3B36"/>
<path d="M99.4227 88.9004C99.4227 86.7604 100.783 83.9204 103.383 83.9204C105.243 83.9204 106.103 85.2204 106.103 86.8404C106.103 88.8804 104.743 91.7404 102.263 91.7404C100.403 91.7404 99.4227 90.6004 99.4227 88.9004ZM97.7227 88.9204C97.7227 91.4204 99.3627 93.2404 102.083 93.2404C105.703 93.2404 107.803 90.0804 107.803 86.7004C107.803 83.9404 106.263 82.4204 103.503 82.4204C99.8827 82.4204 97.7227 85.5404 97.7227 88.9204Z" fill="black" fill-opacity="0.2"/>
<path d="M90.6221 93.0001H92.3221L93.3021 88.4201C93.4621 87.6401 93.7021 86.6601 94.1621 86.0001C94.7021 85.1801 95.4221 84.5601 96.3621 84.3201C96.7621 84.2201 96.9621 84.2201 97.3821 84.2201C97.5421 84.2201 97.7221 84.2201 97.8821 84.2401L98.2821 82.4201C98.0821 82.3801 97.8821 82.4201 97.6821 82.4201C95.9421 82.4201 94.7221 83.4601 93.9221 84.8801H93.8821L94.3821 82.6601H92.7821L90.6221 93.0001Z" fill="#1B3B36"/>
<path d="M90.6221 93.0001H92.3221L93.3021 88.4201C93.4621 87.6401 93.7021 86.6601 94.1621 86.0001C94.7021 85.1801 95.4221 84.5601 96.3621 84.3201C96.7621 84.2201 96.9621 84.2201 97.3821 84.2201C97.5421 84.2201 97.7221 84.2201 97.8821 84.2401L98.2821 82.4201C98.0821 82.3801 97.8821 82.4201 97.6821 82.4201C95.9421 82.4201 94.7221 83.4601 93.9221 84.8801H93.8821L94.3821 82.6601H92.7821L90.6221 93.0001Z" fill="black" fill-opacity="0.2"/>
<path d="M75.4268 93.0002H77.1268L77.9068 89.3202L79.9468 87.5002L81.9668 93.0002H83.8668L81.3068 86.4802L85.8068 82.6602H83.5868L78.3868 87.1602L78.3468 87.1202L80.1268 78.7202H78.4468L75.4268 93.0002Z" fill="#1B3B36"/>
<path d="M75.4268 93.0002H77.1268L77.9068 89.3202L79.9468 87.5002L81.9668 93.0002H83.8668L81.3068 86.4802L85.8068 82.6602H83.5868L78.3868 87.1602L78.3468 87.1202L80.1268 78.7202H78.4468L75.4268 93.0002Z" fill="black" fill-opacity="0.2"/>
<path d="M66.0828 88.9004C66.0828 86.7604 67.4428 83.9204 70.0428 83.9204C71.9028 83.9204 72.7628 85.2204 72.7628 86.8404C72.7628 88.8804 71.4028 91.7404 68.9228 91.7404C67.0628 91.7404 66.0828 90.6004 66.0828 88.9004ZM64.3828 88.9204C64.3828 91.4204 66.0228 93.2404 68.7428 93.2404C72.3628 93.2404 74.4628 90.0804 74.4628 86.7004C74.4628 83.9404 72.9228 82.4204 70.1628 82.4204C66.5428 82.4204 64.3828 85.5404 64.3828 88.9204Z" fill="#1B3B36"/>
<path d="M66.0828 88.9004C66.0828 86.7604 67.4428 83.9204 70.0428 83.9204C71.9028 83.9204 72.7628 85.2204 72.7628 86.8404C72.7628 88.8804 71.4028 91.7404 68.9228 91.7404C67.0628 91.7404 66.0828 90.6004 66.0828 88.9004ZM64.3828 88.9204C64.3828 91.4204 66.0228 93.2404 68.7428 93.2404C72.3628 93.2404 74.4628 90.0804 74.4628 86.7004C74.4628 83.9404 72.9228 82.4204 70.1628 82.4204C66.5428 82.4204 64.3828 85.5404 64.3828 88.9204Z" fill="black" fill-opacity="0.2"/>
<path d="M54.5984 88.9004C54.5984 86.7604 55.9584 83.9204 58.5584 83.9204C60.4184 83.9204 61.2784 85.2204 61.2784 86.8404C61.2784 88.8804 59.9184 91.7404 57.4384 91.7404C55.5784 91.7404 54.5984 90.6004 54.5984 88.9004ZM52.8984 88.9204C52.8984 91.4204 54.5384 93.2404 57.2584 93.2404C60.8784 93.2404 62.9784 90.0804 62.9784 86.7004C62.9784 83.9404 61.4384 82.4204 58.6784 82.4204C55.0584 82.4204 52.8984 85.5404 52.8984 88.9204Z" fill="#1B3B36"/>
<path d="M54.5984 88.9004C54.5984 86.7604 55.9584 83.9204 58.5584 83.9204C60.4184 83.9204 61.2784 85.2204 61.2784 86.8404C61.2784 88.8804 59.9184 91.7404 57.4384 91.7404C55.5784 91.7404 54.5984 90.6004 54.5984 88.9004ZM52.8984 88.9204C52.8984 91.4204 54.5384 93.2404 57.2584 93.2404C60.8784 93.2404 62.9784 90.0804 62.9784 86.7004C62.9784 83.9404 61.4384 82.4204 58.6784 82.4204C55.0584 82.4204 52.8984 85.5404 52.8984 88.9204Z" fill="black" fill-opacity="0.2"/>
<path d="M42.2068 86.4602H46.2868C47.8468 86.4602 49.2268 86.7602 49.2268 88.5802C49.2268 91.1802 46.7068 91.4002 45.7668 91.4002H41.1668L42.2068 86.4602ZM39.0068 93.0002H46.0668C48.8868 93.0002 51.1268 91.3202 51.1268 88.5802C51.1268 87.0602 50.2868 86.0002 48.9868 85.6202V85.5802C50.6668 85.3202 51.7068 83.7202 51.7068 82.1402C51.7068 79.9802 50.5268 78.7202 47.7268 78.7202H41.9868L39.0068 93.0002ZM43.4868 80.3202H47.0068C48.1868 80.3202 49.8068 80.4602 49.8068 82.1402C49.8068 83.9202 48.7468 84.8602 46.7668 84.8602H42.5268L43.4868 80.3202Z" fill="#1B3B36"/>
<path d="M42.2068 86.4602H46.2868C47.8468 86.4602 49.2268 86.7602 49.2268 88.5802C49.2268 91.1802 46.7068 91.4002 45.7668 91.4002H41.1668L42.2068 86.4602ZM39.0068 93.0002H46.0668C48.8868 93.0002 51.1268 91.3202 51.1268 88.5802C51.1268 87.0602 50.2868 86.0002 48.9868 85.6202V85.5802C50.6668 85.3202 51.7068 83.7202 51.7068 82.1402C51.7068 79.9802 50.5268 78.7202 47.7268 78.7202H41.9868L39.0068 93.0002ZM43.4868 80.3202H47.0068C48.1868 80.3202 49.8068 80.4602 49.8068 82.1402C49.8068 83.9202 48.7468 84.8602 46.7668 84.8602H42.5268L43.4868 80.3202Z" fill="black" fill-opacity="0.2"/>
</svg>
