<svg width="175" height="175" viewBox="0 0 175 175" fill="none" xmlns="http://www.w3.org/2000/svg">
<path d="M87.5 0L138.931 16.711L170.717 60.461V114.539L138.931 158.289L87.5 175L36.0688 158.289L4.28255 114.539V60.461L36.0688 16.711L87.5 0Z" fill="#FCD043"/>
<path d="M42.2072 86.46H46.2872C47.8472 86.46 49.2272 86.76 49.2272 88.58C49.2272 91.18 46.7072 91.4 45.7672 91.4H41.1672L42.2072 86.46ZM39.0072 93H46.0672C48.8872 93 51.1272 91.32 51.1272 88.58C51.1272 87.06 50.2872 86 48.9872 85.62V85.58C50.6672 85.32 51.7072 83.72 51.7072 82.14C51.7072 79.98 50.5272 78.72 47.7272 78.72H41.9872L39.0072 93ZM43.4872 80.32H47.0072C48.1872 80.32 49.8072 80.46 49.8072 82.14C49.8072 83.92 48.7472 84.86 46.7672 84.86H42.5272L43.4872 80.32ZM54.5986 88.9C54.5986 86.76 55.9586 83.92 58.5586 83.92C60.4186 83.92 61.2786 85.22 61.2786 86.84C61.2786 88.88 59.9186 91.74 57.4386 91.74C55.5786 91.74 54.5986 90.6 54.5986 88.9ZM52.8986 88.92C52.8986 91.42 54.5386 93.24 57.2586 93.24C60.8786 93.24 62.9786 90.08 62.9786 86.7C62.9786 83.94 61.4386 82.42 58.6786 82.42C55.0586 82.42 52.8986 85.54 52.8986 88.92ZM66.083 88.9C66.083 86.76 67.443 83.92 70.043 83.92C71.903 83.92 72.763 85.22 72.763 86.84C72.763 88.88 71.403 91.74 68.923 91.74C67.063 91.74 66.083 90.6 66.083 88.9ZM64.383 88.92C64.383 91.42 66.023 93.24 68.743 93.24C72.363 93.24 74.463 90.08 74.463 86.7C74.463 83.94 72.923 82.42 70.163 82.42C66.543 82.42 64.383 85.54 64.383 88.92ZM75.4273 93H77.1273L77.9073 89.32L79.9473 87.5L81.9673 93H83.8673L81.3073 86.48L85.8073 82.66H83.5873L78.3873 87.16L78.3473 87.12L80.1273 78.72H78.4473L75.4273 93ZM90.6227 93H92.3227L93.3027 88.42C93.4627 87.64 93.7027 86.66 94.1627 86C94.7027 85.18 95.4227 84.56 96.3627 84.32C96.7627 84.22 96.9627 84.22 97.3827 84.22C97.5427 84.22 97.7227 84.22 97.8827 84.24L98.2827 82.42C98.0827 82.38 97.8827 82.42 97.6827 82.42C95.9427 82.42 94.7227 83.46 93.9227 84.88H93.8827L94.3827 82.66H92.7827L90.6227 93ZM99.4228 88.9C99.4228 86.76 100.783 83.92 103.383 83.92C105.243 83.92 106.103 85.22 106.103 86.84C106.103 88.88 104.743 91.74 102.263 91.74C100.403 91.74 99.4228 90.6 99.4228 88.9ZM97.7228 88.92C97.7228 91.42 99.3628 93.24 102.083 93.24C105.703 93.24 107.803 90.08 107.803 86.7C107.803 83.94 106.263 82.42 103.503 82.42C99.8828 82.42 97.7228 85.54 97.7228 88.92ZM110.907 88.9C110.907 86.76 112.267 83.92 114.867 83.92C116.727 83.92 117.587 85.22 117.587 86.84C117.587 88.88 116.227 91.74 113.747 91.74C111.887 91.74 110.907 90.6 110.907 88.9ZM109.207 88.92C109.207 91.42 110.847 93.24 113.567 93.24C117.187 93.24 119.287 90.08 119.287 86.7C119.287 83.94 117.747 82.42 114.987 82.42C111.367 82.42 109.207 85.54 109.207 88.92ZM120.252 93H121.952L123.112 87.58C123.332 86.56 123.492 85.94 124.212 85.24C124.812 84.56 125.812 83.92 126.752 83.92C127.672 83.92 128.192 84.42 128.192 85.28C128.192 85.52 128.052 86.3 127.872 87.1L126.632 93H128.332L129.472 87.66C129.652 86.78 129.872 85.94 130.432 85.34C131.012 84.6 132.072 83.92 133.032 83.92C133.932 83.92 134.612 84.52 134.612 85.32C134.612 85.62 134.532 86.12 134.452 86.44L133.012 93H134.712L136.012 86.8C136.152 86.22 136.312 85.34 136.312 84.74C136.312 83.06 134.892 82.42 133.432 82.42C132.052 82.42 130.692 83.18 129.892 84.28C129.592 82.94 128.592 82.42 127.292 82.42C125.872 82.42 124.572 83.16 123.692 84.24L123.652 84.2L124.032 82.66H122.452L120.252 93Z" fill="#1B3B36"/>
<path d="M42.2072 86.46H46.2872C47.8472 86.46 49.2272 86.76 49.2272 88.58C49.2272 91.18 46.7072 91.4 45.7672 91.4H41.1672L42.2072 86.46ZM39.0072 93H46.0672C48.8872 93 51.1272 91.32 51.1272 88.58C51.1272 87.06 50.2872 86 48.9872 85.62V85.58C50.6672 85.32 51.7072 83.72 51.7072 82.14C51.7072 79.98 50.5272 78.72 47.7272 78.72H41.9872L39.0072 93ZM43.4872 80.32H47.0072C48.1872 80.32 49.8072 80.46 49.8072 82.14C49.8072 83.92 48.7472 84.86 46.7672 84.86H42.5272L43.4872 80.32ZM54.5986 88.9C54.5986 86.76 55.9586 83.92 58.5586 83.92C60.4186 83.92 61.2786 85.22 61.2786 86.84C61.2786 88.88 59.9186 91.74 57.4386 91.74C55.5786 91.74 54.5986 90.6 54.5986 88.9ZM52.8986 88.92C52.8986 91.42 54.5386 93.24 57.2586 93.24C60.8786 93.24 62.9786 90.08 62.9786 86.7C62.9786 83.94 61.4386 82.42 58.6786 82.42C55.0586 82.42 52.8986 85.54 52.8986 88.92ZM66.083 88.9C66.083 86.76 67.443 83.92 70.043 83.92C71.903 83.92 72.763 85.22 72.763 86.84C72.763 88.88 71.403 91.74 68.923 91.74C67.063 91.74 66.083 90.6 66.083 88.9ZM64.383 88.92C64.383 91.42 66.023 93.24 68.743 93.24C72.363 93.24 74.463 90.08 74.463 86.7C74.463 83.94 72.923 82.42 70.163 82.42C66.543 82.42 64.383 85.54 64.383 88.92ZM75.4273 93H77.1273L77.9073 89.32L79.9473 87.5L81.9673 93H83.8673L81.3073 86.48L85.8073 82.66H83.5873L78.3873 87.16L78.3473 87.12L80.1273 78.72H78.4473L75.4273 93ZM90.6227 93H92.3227L93.3027 88.42C93.4627 87.64 93.7027 86.66 94.1627 86C94.7027 85.18 95.4227 84.56 96.3627 84.32C96.7627 84.22 96.9627 84.22 97.3827 84.22C97.5427 84.22 97.7227 84.22 97.8827 84.24L98.2827 82.42C98.0827 82.38 97.8827 82.42 97.6827 82.42C95.9427 82.42 94.7227 83.46 93.9227 84.88H93.8827L94.3827 82.66H92.7827L90.6227 93ZM99.4228 88.9C99.4228 86.76 100.783 83.92 103.383 83.92C105.243 83.92 106.103 85.22 106.103 86.84C106.103 88.88 104.743 91.74 102.263 91.74C100.403 91.74 99.4228 90.6 99.4228 88.9ZM97.7228 88.92C97.7228 91.42 99.3628 93.24 102.083 93.24C105.703 93.24 107.803 90.08 107.803 86.7C107.803 83.94 106.263 82.42 103.503 82.42C99.8828 82.42 97.7228 85.54 97.7228 88.92ZM110.907 88.9C110.907 86.76 112.267 83.92 114.867 83.92C116.727 83.92 117.587 85.22 117.587 86.84C117.587 88.88 116.227 91.74 113.747 91.74C111.887 91.74 110.907 90.6 110.907 88.9ZM109.207 88.92C109.207 91.42 110.847 93.24 113.567 93.24C117.187 93.24 119.287 90.08 119.287 86.7C119.287 83.94 117.747 82.42 114.987 82.42C111.367 82.42 109.207 85.54 109.207 88.92ZM120.252 93H121.952L123.112 87.58C123.332 86.56 123.492 85.94 124.212 85.24C124.812 84.56 125.812 83.92 126.752 83.92C127.672 83.92 128.192 84.42 128.192 85.28C128.192 85.52 128.052 86.3 127.872 87.1L126.632 93H128.332L129.472 87.66C129.652 86.78 129.872 85.94 130.432 85.34C131.012 84.6 132.072 83.92 133.032 83.92C133.932 83.92 134.612 84.52 134.612 85.32C134.612 85.62 134.532 86.12 134.452 86.44L133.012 93H134.712L136.012 86.8C136.152 86.22 136.312 85.34 136.312 84.74C136.312 83.06 134.892 82.42 133.432 82.42C132.052 82.42 130.692 83.18 129.892 84.28C129.592 82.94 128.592 82.42 127.292 82.42C125.872 82.42 124.572 83.16 123.692 84.24L123.652 84.2L124.032 82.66H122.452L120.252 93Z" fill="black" fill-opacity="0.2"/>
</svg>
