<svg width="809" height="120" viewBox="0 0 809 120" fill="none" xmlns="http://www.w3.org/2000/svg">
<path d="M270.469 56C270.469 56 268.135 56.6154 266.135 58.4615C264.135 60.3077 262.469 63.3846 262.469 63.3846C262.469 63.3846 260.802 60.3077 258.802 58.4615C256.802 56.6154 254.469 56 254.469 56" stroke="#FCD043" stroke-width="2"/>
<path d="M568 56C568 56 565.667 56.6154 563.667 58.4615C561.667 60.3077 560 63.3846 560 63.3846C560 63.3846 558.333 60.3077 556.333 58.4615C554.333 56.6154 552 56 552 56" stroke="#FCD043" stroke-width="2"/>
<path d="M97.7129 64.0001H99.6169V55.6H99.6649L104.865 64.0001H106.977V52.576H105.073V60.9921H105.041L99.8249 52.576H97.7129V64.0001Z" fill="#FFFCF6"/>
<path d="M93.3398 64.0001H95.3398V52.576H93.3398V64.0001Z" fill="#FFFCF6"/>
<path d="M77.9336 64.0001H79.9336V60.1601L81.5656 58.5441L85.3096 64.0001H87.8056L82.9256 57.1361L87.4856 52.576H85.0216L79.9336 57.7761V52.576H77.9336V64.0001Z" fill="#FFFCF6"/>
<path d="M76.0993 56.208C75.8593 53.744 73.8273 52.32 71.2513 52.304C67.8273 52.304 65.7793 55.024 65.7793 58.288C65.7793 61.552 67.8273 64.272 71.2513 64.272C74.0193 64.272 75.9553 62.384 76.1153 59.648H74.1633C74.0033 61.312 73.0273 62.64 71.2513 62.64C68.8033 62.64 67.7793 60.48 67.7793 58.288C67.7793 56.096 68.8033 53.936 71.2513 53.936C72.9153 53.936 73.7633 54.896 74.0993 56.208H76.0993Z" fill="#FFFCF6"/>
<path d="M56.3086 64.0001H64.6446V62.2721H58.3086V58.9281H64.0686V57.2961H58.3086V54.3041H64.5326V52.576H56.3086V64.0001Z" fill="#FFFCF6"/>
<path d="M44.7148 64.0001H46.7148V58.8481H51.9148V64.0001H53.9148V52.576H51.9148V57.1201H46.7148V52.576H44.7148V64.0001Z" fill="#FFFCF6"/>
<path d="M42.9274 56.208C42.6874 53.744 40.6554 52.32 38.0794 52.304C34.6554 52.304 32.6074 55.024 32.6074 58.288C32.6074 61.552 34.6554 64.272 38.0794 64.272C40.8474 64.272 42.7834 62.384 42.9434 59.648H40.9914C40.8314 61.312 39.8554 62.64 38.0794 62.64C35.6314 62.64 34.6074 60.48 34.6074 58.288C34.6074 56.096 35.6314 53.936 38.0794 53.936C39.7434 53.936 40.5914 54.896 40.9274 56.208H42.9274Z" fill="#FFFCF6"/>
<path d="M411.955 54.3041H415.571V64.0001H417.571V54.3041H421.203V52.576H411.955V54.3041Z" fill="#FFFCF6"/>
<path d="M401.369 59.8881C401.369 62.8161 403.241 64.2721 406.057 64.2721C408.873 64.2721 410.745 62.8161 410.745 59.8881V52.576H408.745V59.2321C408.745 60.7681 408.649 62.5441 406.057 62.5441C403.465 62.5441 403.369 60.7681 403.369 59.2321V52.576H401.369V59.8881Z" fill="#FFFCF6"/>
<path d="M394.204 52.304C390.78 52.304 388.732 55.024 388.732 58.288C388.732 61.552 390.78 64.272 394.204 64.272C397.628 64.272 399.676 61.552 399.676 58.288C399.676 55.024 397.628 52.304 394.204 52.304ZM394.204 53.936C396.652 53.936 397.676 56.096 397.676 58.288C397.676 60.48 396.652 62.64 394.204 62.64C391.756 62.64 390.732 60.48 390.732 58.288C390.732 56.096 391.756 53.936 394.204 53.936Z" fill="#FFFCF6"/>
<path d="M373.934 64.0001H375.934V60.1601L377.566 58.5441L381.31 64.0001H383.806L378.926 57.1361L383.486 52.576H381.022L375.934 57.7761V52.576H373.934V64.0001Z" fill="#FFFCF6"/>
<path d="M372.099 56.208C371.859 53.744 369.827 52.32 367.251 52.304C363.827 52.304 361.779 55.024 361.779 58.288C361.779 61.552 363.827 64.272 367.251 64.272C370.019 64.272 371.955 62.384 372.115 59.648H370.163C370.003 61.312 369.027 62.64 367.251 62.64C364.803 62.64 363.779 60.48 363.779 58.288C363.779 56.096 364.803 53.936 367.251 53.936C368.915 53.936 369.763 54.896 370.099 56.208H372.099Z" fill="#FFFCF6"/>
<path d="M352.309 64.0001H360.645V62.2721H354.309V58.9281H360.069V57.2961H354.309V54.3041H360.533V52.576H352.309V64.0001Z" fill="#FFFCF6"/>
<path d="M340.715 64.0001H342.715V58.8481H347.915V64.0001H349.915V52.576H347.915V57.1201H342.715V52.576H340.715V64.0001Z" fill="#FFFCF6"/>
<path d="M338.927 56.208C338.687 53.744 336.655 52.32 334.079 52.304C330.655 52.304 328.607 55.024 328.607 58.288C328.607 61.552 330.655 64.272 334.079 64.272C336.847 64.272 338.783 62.384 338.943 59.648H336.991C336.831 61.312 335.855 62.64 334.079 62.64C331.631 62.64 330.607 60.48 330.607 58.288C330.607 56.096 331.631 53.936 334.079 53.936C335.743 53.936 336.591 54.896 336.927 56.208H338.927Z" fill="#FFFCF6"/>
<g opacity="0.1" filter="url(#filter0_b_13829_295)">
<rect width="592" height="120" fill="#FFFCF6"/>
<rect x="0.5" y="0.5" width="591" height="119" stroke="#FFFCF6"/>
</g>
<rect x="592" width="217" height="120" fill="#FCD043"/>
<path d="M742.525 66.2857H744.667V56.3677H744.703L748.267 66.2857H750.121L753.685 56.3677H753.721V66.2857H755.863V53.4337H752.731L749.275 63.4957H749.239L745.693 53.4337H742.525V66.2857Z" fill="#1B3B36"/>
<path d="M742.525 66.2857H744.667V56.3677H744.703L748.267 66.2857H750.121L753.685 56.3677H753.721V66.2857H755.863V53.4337H752.731L749.275 63.4957H749.239L745.693 53.4337H742.525V66.2857Z" fill="black" fill-opacity="0.2"/>
<path d="M734.357 53.1277C730.505 53.1277 728.201 56.1877 728.201 59.8597C728.201 63.5317 730.505 66.5917 734.357 66.5917C738.209 66.5917 740.513 63.5317 740.513 59.8597C740.513 56.1877 738.209 53.1277 734.357 53.1277ZM734.357 54.9637C737.111 54.9637 738.263 57.3937 738.263 59.8597C738.263 62.3257 737.111 64.7557 734.357 64.7557C731.603 64.7557 730.451 62.3257 730.451 59.8597C730.451 57.3937 731.603 54.9637 734.357 54.9637Z" fill="#1B3B36"/>
<path d="M734.357 53.1277C730.505 53.1277 728.201 56.1877 728.201 59.8597C728.201 63.5317 730.505 66.5917 734.357 66.5917C738.209 66.5917 740.513 63.5317 740.513 59.8597C740.513 56.1877 738.209 53.1277 734.357 53.1277ZM734.357 54.9637C737.111 54.9637 738.263 57.3937 738.263 59.8597C738.263 62.3257 737.111 64.7557 734.357 64.7557C731.603 64.7557 730.451 62.3257 730.451 59.8597C730.451 57.3937 731.603 54.9637 734.357 54.9637Z" fill="black" fill-opacity="0.2"/>
<path d="M720.681 53.1277C716.829 53.1277 714.525 56.1877 714.525 59.8597C714.525 63.5317 716.829 66.5917 720.681 66.5917C724.533 66.5917 726.837 63.5317 726.837 59.8597C726.837 56.1877 724.533 53.1277 720.681 53.1277ZM720.681 54.9637C723.435 54.9637 724.587 57.3937 724.587 59.8597C724.587 62.3257 723.435 64.7557 720.681 64.7557C717.927 64.7557 716.775 62.3257 716.775 59.8597C716.775 57.3937 717.927 54.9637 720.681 54.9637Z" fill="#1B3B36"/>
<path d="M720.681 53.1277C716.829 53.1277 714.525 56.1877 714.525 59.8597C714.525 63.5317 716.829 66.5917 720.681 66.5917C724.533 66.5917 726.837 63.5317 726.837 59.8597C726.837 56.1877 724.533 53.1277 720.681 53.1277ZM720.681 54.9637C723.435 54.9637 724.587 57.3937 724.587 59.8597C724.587 62.3257 723.435 64.7557 720.681 64.7557C717.927 64.7557 716.775 62.3257 716.775 59.8597C716.775 57.3937 717.927 54.9637 720.681 54.9637Z" fill="black" fill-opacity="0.2"/>
<path d="M704.785 55.2697H708.439C709.609 55.2697 710.671 55.5937 710.671 57.2317C710.671 58.5817 709.897 59.2837 708.475 59.2837H704.785V55.2697ZM702.535 66.2857H704.785V60.9937H708.097C710.167 60.9937 710.653 62.0377 710.653 64.3957C710.653 65.0257 710.653 65.7277 710.995 66.2857H713.407C712.921 65.7637 712.705 64.3957 712.705 62.9017C712.705 60.8677 711.571 60.2917 710.797 60.1837V60.1477C711.211 60.0037 712.921 59.3737 712.921 56.9077C712.921 54.7297 711.481 53.4337 708.673 53.4337H702.535V66.2857Z" fill="#1B3B36"/>
<path d="M704.785 55.2697H708.439C709.609 55.2697 710.671 55.5937 710.671 57.2317C710.671 58.5817 709.897 59.2837 708.475 59.2837H704.785V55.2697ZM702.535 66.2857H704.785V60.9937H708.097C710.167 60.9937 710.653 62.0377 710.653 64.3957C710.653 65.0257 710.653 65.7277 710.995 66.2857H713.407C712.921 65.7637 712.705 64.3957 712.705 62.9017C712.705 60.8677 711.571 60.2917 710.797 60.1837V60.1477C711.211 60.0037 712.921 59.3737 712.921 56.9077C712.921 54.7297 711.481 53.4337 708.673 53.4337H702.535V66.2857Z" fill="black" fill-opacity="0.2"/>
<path d="M685.203 66.2857H687.453V61.9657L689.289 60.1477L693.501 66.2857H696.309L690.819 58.5637L695.949 53.4337H693.177L687.453 59.2837V53.4337H685.203V66.2857Z" fill="#1B3B36"/>
<path d="M685.203 66.2857H687.453V61.9657L689.289 60.1477L693.501 66.2857H696.309L690.819 58.5637L695.949 53.4337H693.177L687.453 59.2837V53.4337H685.203V66.2857Z" fill="black" fill-opacity="0.2"/>
<path d="M677 53.1277C673.148 53.1277 670.844 56.1877 670.844 59.8597C670.844 63.5317 673.148 66.5917 677 66.5917C680.852 66.5917 683.156 63.5317 683.156 59.8597C683.156 56.1877 680.852 53.1277 677 53.1277ZM677 54.9637C679.754 54.9637 680.906 57.3937 680.906 59.8597C680.906 62.3257 679.754 64.7557 677 64.7557C674.246 64.7557 673.094 62.3257 673.094 59.8597C673.094 57.3937 674.246 54.9637 677 54.9637Z" fill="#1B3B36"/>
<path d="M677 53.1277C673.148 53.1277 670.844 56.1877 670.844 59.8597C670.844 63.5317 673.148 66.5917 677 66.5917C680.852 66.5917 683.156 63.5317 683.156 59.8597C683.156 56.1877 680.852 53.1277 677 53.1277ZM677 54.9637C679.754 54.9637 680.906 57.3937 680.906 59.8597C680.906 62.3257 679.754 64.7557 677 64.7557C674.246 64.7557 673.094 62.3257 673.094 59.8597C673.094 57.3937 674.246 54.9637 677 54.9637Z" fill="black" fill-opacity="0.2"/>
<path d="M663.324 53.1277C659.472 53.1277 657.168 56.1877 657.168 59.8597C657.168 63.5317 659.472 66.5917 663.324 66.5917C667.176 66.5917 669.48 63.5317 669.48 59.8597C669.48 56.1877 667.176 53.1277 663.324 53.1277ZM663.324 54.9637C666.078 54.9637 667.23 57.3937 667.23 59.8597C667.23 62.3257 666.078 64.7557 663.324 64.7557C660.57 64.7557 659.418 62.3257 659.418 59.8597C659.418 57.3937 660.57 54.9637 663.324 54.9637Z" fill="#1B3B36"/>
<path d="M663.324 53.1277C659.472 53.1277 657.168 56.1877 657.168 59.8597C657.168 63.5317 659.472 66.5917 663.324 66.5917C667.176 66.5917 669.48 63.5317 669.48 59.8597C669.48 56.1877 667.176 53.1277 663.324 53.1277ZM663.324 54.9637C666.078 54.9637 667.23 57.3937 667.23 59.8597C667.23 62.3257 666.078 64.7557 663.324 64.7557C660.57 64.7557 659.418 62.3257 659.418 59.8597C659.418 57.3937 660.57 54.9637 663.324 54.9637Z" fill="black" fill-opacity="0.2"/>
<path d="M647.428 60.4357H651.406C652.774 60.4357 653.566 61.1557 653.566 62.4157C653.566 63.7117 652.774 64.4497 651.406 64.4497H647.428V60.4357ZM645.178 66.2857H651.082C654.412 66.2857 655.816 64.7197 655.816 62.7037C655.816 60.9577 654.97 59.7337 653.404 59.3917V59.3557C654.574 58.8517 655.24 57.9157 655.24 56.6197C655.24 54.4777 653.728 53.4337 651.424 53.4337H645.178V66.2857ZM647.428 55.2697H651.1C652.324 55.2697 652.99 55.7377 652.99 57.0337C652.99 58.1857 652.18 58.8157 651.1 58.8157H647.428V55.2697Z" fill="#1B3B36"/>
<path d="M647.428 60.4357H651.406C652.774 60.4357 653.566 61.1557 653.566 62.4157C653.566 63.7117 652.774 64.4497 651.406 64.4497H647.428V60.4357ZM645.178 66.2857H651.082C654.412 66.2857 655.816 64.7197 655.816 62.7037C655.816 60.9577 654.97 59.7337 653.404 59.3917V59.3557C654.574 58.8517 655.24 57.9157 655.24 56.6197C655.24 54.4777 653.728 53.4337 651.424 53.4337H645.178V66.2857ZM647.428 55.2697H651.1C652.324 55.2697 652.99 55.7377 652.99 57.0337C652.99 58.1857 652.18 58.8157 651.1 58.8157H647.428V55.2697Z" fill="black" fill-opacity="0.2"/>
<defs>
<filter id="filter0_b_13829_295" x="-40" y="-40" width="672" height="200" filterUnits="userSpaceOnUse" color-interpolation-filters="sRGB">
<feFlood flood-opacity="0" result="BackgroundImageFix"/>
<feGaussianBlur in="BackgroundImageFix" stdDeviation="20"/>
<feComposite in2="SourceAlpha" operator="in" result="effect1_backgroundBlur_13829_295"/>
<feBlend mode="normal" in="SourceGraphic" in2="effect1_backgroundBlur_13829_295" result="shape"/>
</filter>
</defs>
</svg>
