<svg width="1440" height="563" viewBox="0 0 1440 563" fill="none" xmlns="http://www.w3.org/2000/svg">
<path opacity="0.12" d="M-259 130.875C-130.213 20.3109 221.641 -122.021 598.759 193.165C1070.16 587.147 1642.36 776.804 2149 183.689" stroke="#FFFCF6"/>
<path d="M841 272L844.638 304.882L861.337 276.323L851.286 307.842L878.157 288.543L856.155 313.25L888.553 306.549L858.404 320.171L890.726 327.226L857.643 327.408L884.301 347L854.005 333.71L870.389 362.451L848.118 337.987L851.396 370.907L841 339.5L830.604 370.907L833.882 337.987L811.611 362.451L827.995 333.71L797.699 347L824.357 327.408L791.274 327.226L823.596 320.171L793.447 306.549L825.845 313.25L803.843 288.543L830.714 307.842L820.663 276.323L837.362 304.882L841 272Z" fill="#FCD043"/>
</svg>
