<svg width="420" height="51" viewBox="0 0 420 51" fill="none" xmlns="http://www.w3.org/2000/svg">
<path d="M17.1785 10.7H13.7785V21.65H2.87852L2.87852 25.05H13.7785L13.7785 36H17.1785V25.05H28.0785V21.65H17.1785V10.7ZM41.359 19.35C42.159 19.25 43.059 19.2 43.909 19.2C48.109 19.2 51.459 21.55 51.459 26C51.459 30.3 47.909 32.85 43.759 32.85C38.909 32.85 36.359 29.65 36.209 25.05H31.959C31.809 32.35 36.559 36.6 43.759 36.6C50.409 36.6 55.959 32.9 55.959 25.8C55.959 21.55 53.859 18.15 49.559 17.2V17.1C52.259 15.85 54.459 13.15 54.459 10.05C54.459 3.5 49.809 0.549997 43.659 0.549997C36.559 0.549997 32.959 5.25 32.709 12H36.959C37.009 7.85 39.009 4.3 43.659 4.3C47.259 4.3 49.959 6.3 49.959 10C49.959 13.85 46.809 15.8 43.209 15.8C42.609 15.8 42.009 15.8 41.359 15.75V19.35ZM64.7422 26C64.7422 21.9 68.0422 19.2 72.2422 19.2C76.2422 19.2 79.5422 22.1 79.5422 25.95C79.5422 29.9 76.5422 32.85 72.2922 32.85C67.8922 32.85 64.7422 30.25 64.7422 26ZM61.4922 9.6C61.4922 12.8 63.4922 15.75 66.4422 16.95C62.4922 18.35 60.2422 21.6 60.2422 25.8C60.2422 33.05 65.4922 36.6 72.2922 36.6C78.8422 36.6 84.0422 32.65 84.0422 25.8C84.0422 21.4 81.9922 18.3 77.7422 16.95C80.6422 15.65 82.6422 12.75 82.6422 9.6C82.6422 5.1 79.6422 0.549997 71.8922 0.549997C66.4422 0.549997 61.4922 3.75 61.4922 9.6ZM65.9922 9.75C65.9922 6.2 68.7922 4.3 72.1922 4.3C75.6422 4.3 78.1422 6.2 78.1422 9.75C78.1422 13.35 75.6422 15.45 72.2922 15.45C68.7922 15.45 65.9922 13.65 65.9922 9.75ZM102.041 18.6C102.041 26.4 102.741 36.6 113.841 36.6C124.941 36.6 125.641 26.4 125.641 18.6C125.641 10.75 124.941 0.549997 113.841 0.549997C102.741 0.549997 102.041 10.75 102.041 18.6ZM106.541 18.55C106.541 13.3 106.591 4.3 113.841 4.3C121.091 4.3 121.141 13.3 121.141 18.55C121.141 23.85 121.091 32.85 113.841 32.85C106.591 32.85 106.541 23.85 106.541 18.55ZM138.625 19.35C139.425 19.25 140.325 19.2 141.175 19.2C145.375 19.2 148.725 21.55 148.725 26C148.725 30.3 145.175 32.85 141.025 32.85C136.175 32.85 133.625 29.65 133.475 25.05H129.225C129.075 32.35 133.825 36.6 141.025 36.6C147.675 36.6 153.225 32.9 153.225 25.8C153.225 21.55 151.125 18.15 146.825 17.2V17.1C149.525 15.85 151.725 13.15 151.725 10.05C151.725 3.5 147.075 0.549997 140.925 0.549997C133.825 0.549997 130.225 5.25 129.975 12H134.225C134.275 7.85 136.275 4.3 140.925 4.3C144.525 4.3 147.225 6.3 147.225 10C147.225 13.85 144.075 15.8 140.475 15.8C139.875 15.8 139.275 15.8 138.625 15.75V19.35ZM161.958 13.1C161.808 8.85 163.908 4.3 168.858 4.3C172.608 4.3 175.708 6.85 175.708 10.7C175.708 15.6 172.658 17.8 166.658 21.5C161.658 24.6 157.408 27.6 156.708 36H179.858V32.25H161.658C162.508 27.85 167.158 25.6 171.608 22.9C176.008 20.15 180.208 17 180.208 10.75C180.208 4.15 175.308 0.549997 169.108 0.549997C161.608 0.549997 157.358 5.9 157.708 13.1L161.958 13.1ZM203.657 13.1C203.507 8.85 205.607 4.3 210.557 4.3C214.307 4.3 217.407 6.85 217.407 10.7C217.407 15.6 214.357 17.8 208.357 21.5C203.357 24.6 199.107 27.6 198.407 36H221.557V32.25H203.357C204.207 27.85 208.857 25.6 213.307 22.9C217.707 20.15 221.907 17 221.907 10.75C221.907 4.15 217.007 0.549997 210.807 0.549997C203.307 0.549997 199.057 5.9 199.407 13.1H203.657ZM245.44 12.4C245.44 16.6 242.64 20.2 238.19 20.2C234.09 20.2 231.19 16.6 231.19 12.7C231.19 8.35 233.09 4.3 238.14 4.3C242.89 4.3 245.44 8.05 245.44 12.4ZM227.44 27.45C227.99 33.55 232.24 36.6 238.19 36.6C246.79 36.6 250.49 29.75 250.49 17.5C250.49 4.1 244.94 0.549997 238.34 0.549997C231.49 0.549997 226.69 5.25 226.69 12.1C226.69 19.1 230.69 23.95 237.89 23.95C241.34 23.95 244.49 22.05 246.09 19.05L246.19 19.15C245.94 28.3 243.39 32.85 238.19 32.85C234.79 32.85 231.99 30.9 231.69 27.45H227.44ZM278.223 1.15L255.273 1.15V5.15L273.873 5.15C266.423 13.05 260.673 24 259.873 36H264.623C265.273 24.9 271.073 11.9 278.223 4.8V1.15ZM317.973 1.15L300.473 1.15L297.173 19.55L300.823 19.75C302.473 17.75 304.723 16.4 307.423 16.4C312.173 16.4 315.423 19.75 315.423 24.45C315.423 30.1 311.973 32.85 307.923 32.85C303.673 32.85 300.723 30.1 300.473 26.45H296.223C296.373 32.85 301.373 36.6 307.523 36.6C315.773 36.6 319.923 30.8 319.923 24.8C319.923 16.7 314.773 12.65 308.473 12.65C306.073 12.65 303.423 13.45 301.873 15.2L301.773 15.1L303.673 4.9L317.973 4.9V1.15ZM324.356 18.6C324.356 26.4 325.056 36.6 336.156 36.6C347.256 36.6 347.956 26.4 347.956 18.6C347.956 10.75 347.256 0.549997 336.156 0.549997C325.056 0.549997 324.356 10.75 324.356 18.6ZM328.856 18.55C328.856 13.3 328.906 4.3 336.156 4.3C343.406 4.3 343.456 13.3 343.456 18.55C343.456 23.85 343.406 32.85 336.156 32.85C328.906 32.85 328.856 23.85 328.856 18.55ZM370.405 13.1C370.255 8.85 372.355 4.3 377.305 4.3C381.055 4.3 384.155 6.85 384.155 10.7C384.155 15.6 381.105 17.8 375.105 21.5C370.105 24.6 365.855 27.6 365.155 36L388.305 36V32.25L370.105 32.25C370.955 27.85 375.605 25.6 380.055 22.9C384.455 20.15 388.655 17 388.655 10.75C388.655 4.15 383.755 0.549997 377.555 0.549997C370.055 0.549997 365.805 5.9 366.155 13.1H370.405ZM393.838 18.6C393.838 26.4 394.538 36.6 405.638 36.6C416.738 36.6 417.438 26.4 417.438 18.6C417.438 10.75 416.738 0.549997 405.638 0.549997C394.538 0.549997 393.838 10.75 393.838 18.6ZM398.338 18.55C398.338 13.3 398.388 4.3 405.638 4.3C412.888 4.3 412.938 13.3 412.938 18.55C412.938 23.85 412.888 32.85 405.638 32.85C398.388 32.85 398.338 23.85 398.338 18.55Z" fill="#FFFCF6"/>
<rect opacity="0.48" y="50" width="420" height="1" fill="#FFFCF6"/>
</svg>
