<svg width="1440" height="563" viewBox="0 0 1440 563" fill="none" xmlns="http://www.w3.org/2000/svg">
<path opacity="0.6" d="M2149 130.875C2020.22 20.3109 1668.36 -122.021 1291.24 193.165C819.847 587.147 247.648 776.804 -259 183.689" stroke="#FCD043"/>
<path d="M841 356L844.638 388.882L861.337 360.323L851.286 391.842L878.157 372.543L856.155 397.25L888.553 390.549L858.404 404.171L890.726 411.226L857.643 411.408L884.301 431L854.005 417.71L870.389 446.451L848.118 421.987L851.396 454.907L841 423.5L830.604 454.907L833.882 421.987L811.611 446.451L827.995 417.71L797.699 431L824.357 411.408L791.274 411.226L823.596 404.171L793.447 390.549L825.845 397.25L803.843 372.543L830.714 391.842L820.663 360.323L837.362 388.882L841 356Z" fill="#FCD043"/>
</svg>
