<svg width="285" height="64" viewBox="0 0 285 64" fill="none" xmlns="http://www.w3.org/2000/svg">
<g opacity="0.48">
<path d="M21.248 38H29.184V36.72H22.768V32.768H28.704V31.488H22.768V27.856H29.136V26.576H21.248V38ZM31.0613 38H32.5013V28.496H32.5333L36.1013 38H37.3973L40.9653 28.496H40.9973V38H42.4373V26.576H40.3573L36.7413 36.176L33.1413 26.576H31.0613V38ZM43.6067 38H45.1748L46.4548 34.56H51.2868L52.5347 38H54.2148L49.7508 26.576H48.0708L43.6067 38ZM48.8708 27.952H48.9028L50.8068 33.28H46.9348L48.8708 27.952ZM55.4058 38H56.9258V26.576H55.4058V38ZM59.4824 38H67.0504V36.72H61.0024V26.576H59.4824V38Z" fill="#1B3B36"/>
<path d="M21.248 38H29.184V36.72H22.768V32.768H28.704V31.488H22.768V27.856H29.136V26.576H21.248V38ZM31.0613 38H32.5013V28.496H32.5333L36.1013 38H37.3973L40.9653 28.496H40.9973V38H42.4373V26.576H40.3573L36.7413 36.176L33.1413 26.576H31.0613V38ZM43.6067 38H45.1748L46.4548 34.56H51.2868L52.5347 38H54.2148L49.7508 26.576H48.0708L43.6067 38ZM48.8708 27.952H48.9028L50.8068 33.28H46.9348L48.8708 27.952ZM55.4058 38H56.9258V26.576H55.4058V38ZM59.4824 38H67.0504V36.72H61.0024V26.576H59.4824V38Z" fill="black" fill-opacity="0.2"/>
</g>
<g opacity="0.64" filter="url(#filter0_b_13824_169)">
<rect x="0.5" y="0.5" width="284" height="63" stroke="#313F38"/>
</g>
<g opacity="0.48">
<path d="M258 23C258 23 258.583 25.4792 260.333 27.6042C262.083 29.7292 265 31.5 265 31.5C265 31.5 262.083 33.2708 260.333 35.3958C258.583 37.5208 258 40 258 40" stroke="#313F38" stroke-width="2"/>
<rect x="234.25" y="31.25" width="29.5" height="0.5" fill="#313F38" stroke="#313F38" stroke-width="0.5"/>
</g>
<defs>
<filter id="filter0_b_13824_169" x="-40" y="-40" width="365" height="144" filterUnits="userSpaceOnUse" color-interpolation-filters="sRGB">
<feFlood flood-opacity="0" result="BackgroundImageFix"/>
<feGaussianBlur in="BackgroundImageFix" stdDeviation="20"/>
<feComposite in2="SourceAlpha" operator="in" result="effect1_backgroundBlur_13824_169"/>
<feBlend mode="normal" in="SourceGraphic" in2="effect1_backgroundBlur_13824_169" result="shape"/>
</filter>
</defs>
</svg>
