<svg width="249" height="65" viewBox="0 0 249 65" fill="none" xmlns="http://www.w3.org/2000/svg">
<path d="M190.593 33.6739C190.945 33.6299 191.341 33.6079 191.715 33.6079C193.563 33.6079 195.037 34.6419 195.037 36.5999C195.037 38.4919 193.475 39.6139 191.649 39.6139C189.515 39.6139 188.393 38.2059 188.327 36.1819H186.457C186.391 39.3939 188.481 41.2639 191.649 41.2639C194.575 41.2639 197.017 39.6359 197.017 36.5119C197.017 34.6419 196.093 33.1459 194.201 32.7279V32.6839C195.389 32.1339 196.357 30.9459 196.357 29.5819C196.357 26.6999 194.311 25.4019 191.605 25.4019C188.481 25.4019 186.897 27.4699 186.787 30.4399H188.657C188.679 28.6139 189.559 27.0519 191.605 27.0519C193.189 27.0519 194.377 27.9319 194.377 29.5599C194.377 31.2539 192.991 32.1119 191.407 32.1119C191.143 32.1119 190.879 32.1119 190.593 32.0899V33.6739Z" fill="#1B3B36"/>
<path d="M190.593 33.6739C190.945 33.6299 191.341 33.6079 191.715 33.6079C193.563 33.6079 195.037 34.6419 195.037 36.5999C195.037 38.4919 193.475 39.6139 191.649 39.6139C189.515 39.6139 188.393 38.2059 188.327 36.1819H186.457C186.391 39.3939 188.481 41.2639 191.649 41.2639C194.575 41.2639 197.017 39.6359 197.017 36.5119C197.017 34.6419 196.093 33.1459 194.201 32.7279V32.6839C195.389 32.1339 196.357 30.9459 196.357 29.5819C196.357 26.6999 194.311 25.4019 191.605 25.4019C188.481 25.4019 186.897 27.4699 186.787 30.4399H188.657C188.679 28.6139 189.559 27.0519 191.605 27.0519C193.189 27.0519 194.377 27.9319 194.377 29.5599C194.377 31.2539 192.991 32.1119 191.407 32.1119C191.143 32.1119 190.879 32.1119 190.593 32.0899V33.6739Z" fill="black" fill-opacity="0.2"/>
<path d="M184.77 25.666H174.672V27.426H182.856C179.578 30.902 177.048 35.72 176.696 41H178.786C179.072 36.116 181.624 30.396 184.77 27.272V25.666Z" fill="#1B3B36"/>
<path d="M184.77 25.666H174.672V27.426H182.856C179.578 30.902 177.048 35.72 176.696 41H178.786C179.072 36.116 181.624 30.396 184.77 27.272V25.666Z" fill="black" fill-opacity="0.2"/>
<path d="M170.346 30.6159C170.346 32.4639 169.114 34.0479 167.156 34.0479C165.352 34.0479 164.076 32.4639 164.076 30.7479C164.076 28.8339 164.912 27.0519 167.134 27.0519C169.224 27.0519 170.346 28.7019 170.346 30.6159ZM162.426 37.2379C162.668 39.9219 164.538 41.2639 167.156 41.2639C170.94 41.2639 172.568 38.2499 172.568 32.8599C172.568 26.9639 170.126 25.4019 167.222 25.4019C164.208 25.4019 162.096 27.4699 162.096 30.4839C162.096 33.5639 163.856 35.6979 167.024 35.6979C168.542 35.6979 169.928 34.8619 170.632 33.5419L170.676 33.5859C170.566 37.6119 169.444 39.6139 167.156 39.6139C165.66 39.6139 164.428 38.7559 164.296 37.2379H162.426Z" fill="#1B3B36"/>
<path d="M170.346 30.6159C170.346 32.4639 169.114 34.0479 167.156 34.0479C165.352 34.0479 164.076 32.4639 164.076 30.7479C164.076 28.8339 164.912 27.0519 167.134 27.0519C169.224 27.0519 170.346 28.7019 170.346 30.6159ZM162.426 37.2379C162.668 39.9219 164.538 41.2639 167.156 41.2639C170.94 41.2639 172.568 38.2499 172.568 32.8599C172.568 26.9639 170.126 25.4019 167.222 25.4019C164.208 25.4019 162.096 27.4699 162.096 30.4839C162.096 33.5639 163.856 35.6979 167.024 35.6979C168.542 35.6979 169.928 34.8619 170.632 33.5419L170.676 33.5859C170.566 37.6119 169.444 39.6139 167.156 39.6139C165.66 39.6139 164.428 38.7559 164.296 37.2379H162.426Z" fill="black" fill-opacity="0.2"/>
<path d="M156.955 25.4019H155.525C155.107 27.7559 153.171 28.3279 151.037 28.3279V29.8239H155.085V40.9999H156.955V25.4019Z" fill="#1B3B36"/>
<path d="M156.955 25.4019H155.525C155.107 27.7559 153.171 28.3279 151.037 28.3279V29.8239H155.085V40.9999H156.955V25.4019Z" fill="black" fill-opacity="0.2"/>
<path d="M140.446 37.3921C140.116 38.8661 139.038 39.6141 137.498 39.6141C135.012 39.6141 133.89 37.8541 133.956 35.8741H142.47C142.58 33.1241 141.348 29.3621 137.322 29.3621C134.22 29.3621 131.976 31.8701 131.976 35.2801C132.086 38.7561 133.802 41.2641 137.432 41.2641C139.984 41.2641 141.788 39.9001 142.294 37.3921H140.446ZM133.956 34.2241C134.088 32.4861 135.254 31.0121 137.212 31.0121C139.06 31.0121 140.402 32.4421 140.49 34.2241H133.956Z" fill="#1B3B36"/>
<path d="M140.446 37.3921C140.116 38.8661 139.038 39.6141 137.498 39.6141C135.012 39.6141 133.89 37.8541 133.956 35.8741H142.47C142.58 33.1241 141.348 29.3621 137.322 29.3621C134.22 29.3621 131.976 31.8701 131.976 35.2801C132.086 38.7561 133.802 41.2641 137.432 41.2641C139.984 41.2641 141.788 39.9001 142.294 37.3921H140.446ZM133.956 34.2241C134.088 32.4861 135.254 31.0121 137.212 31.0121C139.06 31.0121 140.402 32.4421 140.49 34.2241H133.956Z" fill="black" fill-opacity="0.2"/>
<path d="M130.433 33.2781C130.169 30.5721 128.101 29.3621 125.527 29.3621C121.919 29.3621 120.159 32.0461 120.159 35.4561C120.159 38.8441 122.007 41.2641 125.483 41.2641C128.343 41.2641 130.081 39.6141 130.499 36.8421H128.585C128.343 38.5581 127.265 39.6141 125.461 39.6141C123.085 39.6141 122.139 37.5461 122.139 35.4561C122.139 33.1461 122.975 31.0121 125.681 31.0121C127.221 31.0121 128.211 31.8481 128.497 33.2781H130.433Z" fill="#1B3B36"/>
<path d="M130.433 33.2781C130.169 30.5721 128.101 29.3621 125.527 29.3621C121.919 29.3621 120.159 32.0461 120.159 35.4561C120.159 38.8441 122.007 41.2641 125.483 41.2641C128.343 41.2641 130.081 39.6141 130.499 36.8421H128.585C128.343 38.5581 127.265 39.6141 125.461 39.6141C123.085 39.6141 122.139 37.5461 122.139 35.4561C122.139 33.1461 122.975 31.0121 125.681 31.0121C127.221 31.0121 128.211 31.8481 128.497 33.2781H130.433Z" fill="black" fill-opacity="0.2"/>
<path d="M108.551 41.0001H110.421V34.5761C110.421 32.5301 111.521 31.0121 113.787 31.0121C115.217 31.0121 116.097 31.9141 116.097 33.3001V41.0001H117.967V33.5201C117.967 31.0781 117.043 29.3621 114.051 29.3621C112.423 29.3621 111.147 30.0221 110.355 31.4301H110.311V29.6261H108.551V41.0001Z" fill="#1B3B36"/>
<path d="M108.551 41.0001H110.421V34.5761C110.421 32.5301 111.521 31.0121 113.787 31.0121C115.217 31.0121 116.097 31.9141 116.097 33.3001V41.0001H117.967V33.5201C117.967 31.0781 117.043 29.3621 114.051 29.3621C112.423 29.3621 111.147 30.0221 110.355 31.4301H110.311V29.6261H108.551V41.0001Z" fill="black" fill-opacity="0.2"/>
<path d="M103.784 41H105.654V29.626H103.784V41ZM105.654 25.292H103.784V27.58H105.654V25.292Z" fill="#1B3B36"/>
<path d="M103.784 41H105.654V29.626H103.784V41ZM105.654 25.292H103.784V27.58H105.654V25.292Z" fill="black" fill-opacity="0.2"/>
<path d="M100.782 29.89C100.65 26.436 98.208 24.918 94.996 24.918C92.136 24.918 89.298 26.326 89.298 29.516C89.298 32.398 91.828 33.124 94.336 33.674C96.844 34.224 99.352 34.598 99.352 36.754C99.352 39.02 97.262 39.614 95.37 39.614C92.994 39.614 90.794 38.47 90.794 35.83H88.814C88.814 39.658 91.784 41.374 95.304 41.374C98.164 41.374 101.442 40.032 101.442 36.688C101.442 33.608 98.934 32.728 96.426 32.156C93.896 31.584 91.388 31.298 91.388 29.362C91.388 27.316 93.148 26.678 94.908 26.678C97.064 26.678 98.56 27.646 98.802 29.89H100.782Z" fill="#1B3B36"/>
<path d="M100.782 29.89C100.65 26.436 98.208 24.918 94.996 24.918C92.136 24.918 89.298 26.326 89.298 29.516C89.298 32.398 91.828 33.124 94.336 33.674C96.844 34.224 99.352 34.598 99.352 36.754C99.352 39.02 97.262 39.614 95.37 39.614C92.994 39.614 90.794 38.47 90.794 35.83H88.814C88.814 39.658 91.784 41.374 95.304 41.374C98.164 41.374 101.442 40.032 101.442 36.688C101.442 33.608 98.934 32.728 96.426 32.156C93.896 31.584 91.388 31.298 91.388 29.362C91.388 27.316 93.148 26.678 94.908 26.678C97.064 26.678 98.56 27.646 98.802 29.89H100.782Z" fill="black" fill-opacity="0.2"/>
<path d="M47.5 15L48.8519 28.3391L57.7862 18.3422L51.0394 29.9284L64.1435 27.0922L51.875 32.5L64.1435 37.9078L51.0394 35.0716L57.7862 46.6578L48.8519 36.6609L47.5 50L46.148 36.6609L37.2138 46.6578L43.9605 35.0716L30.8565 37.9078L43.125 32.5L30.8565 27.0922L43.9605 29.9284L37.2138 18.3422L46.148 28.3391L47.5 15Z" fill="#FCD043"/>
<rect opacity="0.48" x="0.5" y="0.5" width="248" height="64" rx="32" stroke="#313F38"/>
</svg>
