<svg width="808" height="120" viewBox="0 0 808 120" fill="none" xmlns="http://www.w3.org/2000/svg">
<g filter="url(#filter0_b_13822_519)">
<rect width="592" height="120" fill="#FFFCF6"/>
<rect x="0.5" y="0.5" width="591" height="119" stroke="#313F38"/>
</g>
<rect opacity="0.24" width="1" height="60" transform="matrix(-1 0 0 1 296 30)" fill="#313F38"/>
<path d="M270.469 56C270.469 56 268.135 56.6154 266.135 58.4615C264.135 60.3077 262.469 63.3846 262.469 63.3846C262.469 63.3846 260.802 60.3077 258.802 58.4615C256.802 56.6154 254.469 56 254.469 56" stroke="#FCD043" stroke-width="2"/>
<path d="M568 56C568 56 565.667 56.6154 563.667 58.4615C561.667 60.3077 560 63.3846 560 63.3846C560 63.3846 558.333 60.3077 556.333 58.4615C554.333 56.6154 552 56 552 56" stroke="#FCD043" stroke-width="2"/>
<path d="M97.7141 64.0002H99.6181V55.6002H99.6661L104.866 64.0002H106.978V52.5762H105.074V60.9922H105.042L99.8261 52.5762H97.7141V64.0002Z" fill="#1B3B36"/>
<path d="M97.7141 64.0002H99.6181V55.6002H99.6661L104.866 64.0002H106.978V52.5762H105.074V60.9922H105.042L99.8261 52.5762H97.7141V64.0002Z" fill="black" fill-opacity="0.2"/>
<path d="M93.341 64.0002H95.341V52.5762H93.341V64.0002Z" fill="#1B3B36"/>
<path d="M93.341 64.0002H95.341V52.5762H93.341V64.0002Z" fill="black" fill-opacity="0.2"/>
<path d="M77.9348 64.0002H79.9348V60.1602L81.5668 58.5442L85.3108 64.0002H87.8068L82.9268 57.1362L87.4868 52.5762H85.0228L79.9348 57.7762V52.5762H77.9348V64.0002Z" fill="#1B3B36"/>
<path d="M77.9348 64.0002H79.9348V60.1602L81.5668 58.5442L85.3108 64.0002H87.8068L82.9268 57.1362L87.4868 52.5762H85.0228L79.9348 57.7762V52.5762H77.9348V64.0002Z" fill="black" fill-opacity="0.2"/>
<path d="M76.0999 56.2082C75.8599 53.7442 73.8279 52.3202 71.2519 52.3042C67.8279 52.3042 65.7799 55.0242 65.7799 58.2882C65.7799 61.5522 67.8279 64.2722 71.2519 64.2722C74.0199 64.2722 75.9559 62.3842 76.1159 59.6482H74.1639C74.0039 61.3122 73.0279 62.6402 71.2519 62.6402C68.8039 62.6402 67.7799 60.4802 67.7799 58.2882C67.7799 56.0962 68.8039 53.9362 71.2519 53.9362C72.9159 53.9362 73.7639 54.8962 74.0999 56.2082H76.0999Z" fill="#1B3B36"/>
<path d="M76.0999 56.2082C75.8599 53.7442 73.8279 52.3202 71.2519 52.3042C67.8279 52.3042 65.7799 55.0242 65.7799 58.2882C65.7799 61.5522 67.8279 64.2722 71.2519 64.2722C74.0199 64.2722 75.9559 62.3842 76.1159 59.6482H74.1639C74.0039 61.3122 73.0279 62.6402 71.2519 62.6402C68.8039 62.6402 67.7799 60.4802 67.7799 58.2882C67.7799 56.0962 68.8039 53.9362 71.2519 53.9362C72.9159 53.9362 73.7639 54.8962 74.0999 56.2082H76.0999Z" fill="black" fill-opacity="0.2"/>
<path d="M56.3098 64.0002H64.6458V62.2722H58.3098V58.9282H64.0698V57.2962H58.3098V54.3042H64.5338V52.5762H56.3098V64.0002Z" fill="#1B3B36"/>
<path d="M56.3098 64.0002H64.6458V62.2722H58.3098V58.9282H64.0698V57.2962H58.3098V54.3042H64.5338V52.5762H56.3098V64.0002Z" fill="black" fill-opacity="0.2"/>
<path d="M44.7149 64.0002H46.7149V58.8482H51.9149V64.0002H53.9149V52.5762H51.9149V57.1202H46.7149V52.5762H44.7149V64.0002Z" fill="#1B3B36"/>
<path d="M44.7149 64.0002H46.7149V58.8482H51.9149V64.0002H53.9149V52.5762H51.9149V57.1202H46.7149V52.5762H44.7149V64.0002Z" fill="black" fill-opacity="0.2"/>
<path d="M42.928 56.2082C42.688 53.7442 40.656 52.3202 38.08 52.3042C34.656 52.3042 32.608 55.0242 32.608 58.2882C32.608 61.5522 34.656 64.2722 38.08 64.2722C40.848 64.2722 42.784 62.3842 42.944 59.6482H40.992C40.832 61.3122 39.856 62.6402 38.08 62.6402C35.632 62.6402 34.608 60.4802 34.608 58.2882C34.608 56.0962 35.632 53.9362 38.08 53.9362C39.744 53.9362 40.592 54.8962 40.928 56.2082H42.928Z" fill="#1B3B36"/>
<path d="M42.928 56.2082C42.688 53.7442 40.656 52.3202 38.08 52.3042C34.656 52.3042 32.608 55.0242 32.608 58.2882C32.608 61.5522 34.656 64.2722 38.08 64.2722C40.848 64.2722 42.784 62.3842 42.944 59.6482H40.992C40.832 61.3122 39.856 62.6402 38.08 62.6402C35.632 62.6402 34.608 60.4802 34.608 58.2882C34.608 56.0962 35.632 53.9362 38.08 53.9362C39.744 53.9362 40.592 54.8962 40.928 56.2082H42.928Z" fill="black" fill-opacity="0.2"/>
<path d="M411.956 54.3042H415.572V64.0002H417.572V54.3042H421.204V52.5762H411.956V54.3042Z" fill="#1B3B36"/>
<path d="M411.956 54.3042H415.572V64.0002H417.572V54.3042H421.204V52.5762H411.956V54.3042Z" fill="black" fill-opacity="0.2"/>
<path d="M401.369 59.8882C401.369 62.8162 403.241 64.2722 406.057 64.2722C408.873 64.2722 410.745 62.8162 410.745 59.8882V52.5762H408.745V59.2322C408.745 60.7682 408.649 62.5442 406.057 62.5442C403.465 62.5442 403.369 60.7682 403.369 59.2322V52.5762H401.369V59.8882Z" fill="#1B3B36"/>
<path d="M401.369 59.8882C401.369 62.8162 403.241 64.2722 406.057 64.2722C408.873 64.2722 410.745 62.8162 410.745 59.8882V52.5762H408.745V59.2322C408.745 60.7682 408.649 62.5442 406.057 62.5442C403.465 62.5442 403.369 60.7682 403.369 59.2322V52.5762H401.369V59.8882Z" fill="black" fill-opacity="0.2"/>
<path d="M394.205 52.3042C390.781 52.3042 388.733 55.0242 388.733 58.2882C388.733 61.5522 390.781 64.2722 394.205 64.2722C397.629 64.2722 399.677 61.5522 399.677 58.2882C399.677 55.0242 397.629 52.3042 394.205 52.3042ZM394.205 53.9362C396.653 53.9362 397.677 56.0962 397.677 58.2882C397.677 60.4802 396.653 62.6402 394.205 62.6402C391.757 62.6402 390.733 60.4802 390.733 58.2882C390.733 56.0962 391.757 53.9362 394.205 53.9362Z" fill="#1B3B36"/>
<path d="M394.205 52.3042C390.781 52.3042 388.733 55.0242 388.733 58.2882C388.733 61.5522 390.781 64.2722 394.205 64.2722C397.629 64.2722 399.677 61.5522 399.677 58.2882C399.677 55.0242 397.629 52.3042 394.205 52.3042ZM394.205 53.9362C396.653 53.9362 397.677 56.0962 397.677 58.2882C397.677 60.4802 396.653 62.6402 394.205 62.6402C391.757 62.6402 390.733 60.4802 390.733 58.2882C390.733 56.0962 391.757 53.9362 394.205 53.9362Z" fill="black" fill-opacity="0.2"/>
<path d="M373.935 64.0002H375.935V60.1602L377.567 58.5442L381.311 64.0002H383.807L378.927 57.1362L383.487 52.5762H381.023L375.935 57.7762V52.5762H373.935V64.0002Z" fill="#1B3B36"/>
<path d="M373.935 64.0002H375.935V60.1602L377.567 58.5442L381.311 64.0002H383.807L378.927 57.1362L383.487 52.5762H381.023L375.935 57.7762V52.5762H373.935V64.0002Z" fill="black" fill-opacity="0.2"/>
<path d="M372.1 56.2082C371.86 53.7442 369.828 52.3202 367.252 52.3042C363.828 52.3042 361.78 55.0242 361.78 58.2882C361.78 61.5522 363.828 64.2722 367.252 64.2722C370.02 64.2722 371.956 62.3842 372.116 59.6482H370.164C370.004 61.3122 369.028 62.6402 367.252 62.6402C364.804 62.6402 363.78 60.4802 363.78 58.2882C363.78 56.0962 364.804 53.9362 367.252 53.9362C368.916 53.9362 369.764 54.8962 370.1 56.2082H372.1Z" fill="#1B3B36"/>
<path d="M372.1 56.2082C371.86 53.7442 369.828 52.3202 367.252 52.3042C363.828 52.3042 361.78 55.0242 361.78 58.2882C361.78 61.5522 363.828 64.2722 367.252 64.2722C370.02 64.2722 371.956 62.3842 372.116 59.6482H370.164C370.004 61.3122 369.028 62.6402 367.252 62.6402C364.804 62.6402 363.78 60.4802 363.78 58.2882C363.78 56.0962 364.804 53.9362 367.252 53.9362C368.916 53.9362 369.764 54.8962 370.1 56.2082H372.1Z" fill="black" fill-opacity="0.2"/>
<path d="M352.31 64.0002H360.646V62.2722H354.31V58.9282H360.07V57.2962H354.31V54.3042H360.534V52.5762H352.31V64.0002Z" fill="#1B3B36"/>
<path d="M352.31 64.0002H360.646V62.2722H354.31V58.9282H360.07V57.2962H354.31V54.3042H360.534V52.5762H352.31V64.0002Z" fill="black" fill-opacity="0.2"/>
<path d="M340.715 64.0002H342.715V58.8482H347.915V64.0002H349.915V52.5762H347.915V57.1202H342.715V52.5762H340.715V64.0002Z" fill="#1B3B36"/>
<path d="M340.715 64.0002H342.715V58.8482H347.915V64.0002H349.915V52.5762H347.915V57.1202H342.715V52.5762H340.715V64.0002Z" fill="black" fill-opacity="0.2"/>
<path d="M338.928 56.2082C338.688 53.7442 336.656 52.3202 334.08 52.3042C330.656 52.3042 328.608 55.0242 328.608 58.2882C328.608 61.5522 330.656 64.2722 334.08 64.2722C336.848 64.2722 338.784 62.3842 338.944 59.6482H336.992C336.832 61.3122 335.856 62.6402 334.08 62.6402C331.632 62.6402 330.608 60.4802 330.608 58.2882C330.608 56.0962 331.632 53.9362 334.08 53.9362C335.744 53.9362 336.592 54.8962 336.928 56.2082H338.928Z" fill="#1B3B36"/>
<path d="M338.928 56.2082C338.688 53.7442 336.656 52.3202 334.08 52.3042C330.656 52.3042 328.608 55.0242 328.608 58.2882C328.608 61.5522 330.656 64.2722 334.08 64.2722C336.848 64.2722 338.784 62.3842 338.944 59.6482H336.992C336.832 61.3122 335.856 62.6402 334.08 62.6402C331.632 62.6402 330.608 60.4802 330.608 58.2882C330.608 56.0962 331.632 53.9362 334.08 53.9362C335.744 53.9362 336.592 54.8962 336.928 56.2082H338.928Z" fill="black" fill-opacity="0.2"/>
<rect x="591" width="217" height="120" fill="#313F38"/>
<path d="M741.525 66.2861H743.667V56.3681H743.703L747.267 66.2861H749.121L752.685 56.3681H752.721V66.2861H754.863V53.4341H751.731L748.275 63.4961H748.239L744.693 53.4341H741.525V66.2861Z" fill="#FFFCF6"/>
<path d="M733.358 53.1279C729.506 53.1279 727.202 56.1879 727.202 59.8599C727.202 63.5319 729.506 66.5919 733.358 66.5919C737.21 66.5919 739.514 63.5319 739.514 59.8599C739.514 56.1879 737.21 53.1279 733.358 53.1279ZM733.358 54.9639C736.112 54.9639 737.264 57.3939 737.264 59.8599C737.264 62.3259 736.112 64.7559 733.358 64.7559C730.604 64.7559 729.452 62.3259 729.452 59.8599C729.452 57.3939 730.604 54.9639 733.358 54.9639Z" fill="#FFFCF6"/>
<path d="M719.682 53.1279C715.83 53.1279 713.526 56.1879 713.526 59.8599C713.526 63.5319 715.83 66.5919 719.682 66.5919C723.534 66.5919 725.838 63.5319 725.838 59.8599C725.838 56.1879 723.534 53.1279 719.682 53.1279ZM719.682 54.9639C722.436 54.9639 723.588 57.3939 723.588 59.8599C723.588 62.3259 722.436 64.7559 719.682 64.7559C716.928 64.7559 715.776 62.3259 715.776 59.8599C715.776 57.3939 716.928 54.9639 719.682 54.9639Z" fill="#FFFCF6"/>
<path d="M703.786 55.2701H707.44C708.61 55.2701 709.672 55.5941 709.672 57.2321C709.672 58.5821 708.898 59.2841 707.476 59.2841H703.786V55.2701ZM701.536 66.2861H703.786V60.9941H707.098C709.168 60.9941 709.654 62.0381 709.654 64.3961C709.654 65.0261 709.654 65.7281 709.996 66.2861H712.408C711.922 65.7641 711.706 64.3961 711.706 62.9021C711.706 60.8681 710.572 60.2921 709.798 60.1841V60.1481C710.212 60.0041 711.922 59.3741 711.922 56.9081C711.922 54.7301 710.482 53.4341 707.674 53.4341H701.536V66.2861Z" fill="#FFFCF6"/>
<path d="M684.204 66.2861H686.454V61.9661L688.29 60.1481L692.502 66.2861H695.31L689.82 58.5641L694.95 53.4341H692.178L686.454 59.2841V53.4341H684.204V66.2861Z" fill="#FFFCF6"/>
<path d="M676 53.1279C672.148 53.1279 669.844 56.1879 669.844 59.8599C669.844 63.5319 672.148 66.5919 676 66.5919C679.852 66.5919 682.156 63.5319 682.156 59.8599C682.156 56.1879 679.852 53.1279 676 53.1279ZM676 54.9639C678.754 54.9639 679.906 57.3939 679.906 59.8599C679.906 62.3259 678.754 64.7559 676 64.7559C673.246 64.7559 672.094 62.3259 672.094 59.8599C672.094 57.3939 673.246 54.9639 676 54.9639Z" fill="#FFFCF6"/>
<path d="M662.324 53.1279C658.472 53.1279 656.168 56.1879 656.168 59.8599C656.168 63.5319 658.472 66.5919 662.324 66.5919C666.176 66.5919 668.48 63.5319 668.48 59.8599C668.48 56.1879 666.176 53.1279 662.324 53.1279ZM662.324 54.9639C665.078 54.9639 666.23 57.3939 666.23 59.8599C666.23 62.3259 665.078 64.7559 662.324 64.7559C659.57 64.7559 658.418 62.3259 658.418 59.8599C658.418 57.3939 659.57 54.9639 662.324 54.9639Z" fill="#FFFCF6"/>
<path d="M646.429 60.4361H650.407C651.775 60.4361 652.567 61.1561 652.567 62.4161C652.567 63.7121 651.775 64.4501 650.407 64.4501H646.429V60.4361ZM644.179 66.2861H650.083C653.413 66.2861 654.817 64.7201 654.817 62.7041C654.817 60.9581 653.971 59.7341 652.405 59.3921V59.3561C653.575 58.8521 654.241 57.9161 654.241 56.6201C654.241 54.4781 652.729 53.4341 650.425 53.4341H644.179V66.2861ZM646.429 55.2701H650.101C651.325 55.2701 651.991 55.7381 651.991 57.0341C651.991 58.1861 651.181 58.8161 650.101 58.8161H646.429V55.2701Z" fill="#FFFCF6"/>
<defs>
<filter id="filter0_b_13822_519" x="-40" y="-40" width="672" height="200" filterUnits="userSpaceOnUse" color-interpolation-filters="sRGB">
<feFlood flood-opacity="0" result="BackgroundImageFix"/>
<feGaussianBlur in="BackgroundImageFix" stdDeviation="20"/>
<feComposite in2="SourceAlpha" operator="in" result="effect1_backgroundBlur_13822_519"/>
<feBlend mode="normal" in="SourceGraphic" in2="effect1_backgroundBlur_13822_519" result="shape"/>
</filter>
</defs>
</svg>
