<svg width="1440" height="191" viewBox="0 0 1440 191" fill="none" xmlns="http://www.w3.org/2000/svg">
<path d="M1460.11 172.3C1460.11 180.6 1457.21 188.4 1450.51 188.7C1442.61 189.1 1441.01 183.1 1441.01 174.4V142.6H1452.71V141.9H1441.01V128.2H1439.91L1433.11 141.9H1427.21V142.6H1433.11V173C1433.11 184.7 1438.61 190.5 1447.41 190.5C1458.01 190.5 1460.81 181.8 1460.81 172.3H1460.11Z" fill="#FFFCF6" fill-opacity="0.12"/>
<path d="M1397.76 141.9C1385.16 141.9 1371.36 151 1371.36 166.2C1371.36 181.4 1385.16 190.5 1397.76 190.5C1410.36 190.5 1424.16 181.4 1424.16 166.2C1424.16 151 1410.36 141.9 1397.76 141.9ZM1397.76 189.7C1387.86 189.7 1379.56 179.4 1379.56 166.2C1379.56 153 1387.86 142.7 1397.76 142.7C1407.66 142.7 1415.96 153 1415.96 166.2C1415.96 179.4 1407.66 189.7 1397.76 189.7Z" fill="#FFFCF6" fill-opacity="0.12"/>
<path d="M1363.33 159.4C1362.03 147.5 1355.13 141.9 1346.93 141.9C1333.93 141.9 1330.53 155.4 1329.23 166.7V120H1321.33V190H1329.23V175.1C1329.23 166.7 1331.23 145.8 1342.43 143.7C1351.03 142 1354.73 150.5 1355.53 158C1356.03 163.1 1358.03 186.7 1358.43 190H1366.33C1365.93 186.3 1364.33 169.2 1363.33 159.4Z" fill="#FFFCF6" fill-opacity="0.12"/>
<path d="M1270.75 157L1286.95 142.6H1285.85L1257.55 167.7V120H1249.75V190H1257.55V168.6L1265.65 161.4L1283.15 190H1291.25L1270.75 157Z" fill="#FFFCF6" fill-opacity="0.12"/>
<path d="M1238.62 159.4C1237.32 147.5 1230.42 141.9 1222.22 141.9C1209.22 141.9 1205.82 155.4 1204.52 166.7V142.6H1196.62V190H1204.52V175.2C1204.52 166.8 1206.52 145.8 1217.72 143.7C1226.32 142 1230.02 150.5 1230.82 158C1231.32 163.1 1233.42 186.7 1233.72 190H1241.72C1241.22 186.3 1239.62 169.2 1238.62 159.4Z" fill="#FFFCF6" fill-opacity="0.12"/>
<path d="M1168.42 141.9C1160.42 141.9 1155.62 146.1 1154.02 151.5L1154.72 151.8C1156.32 146.5 1161.02 142.9 1167.52 142.9C1174.62 142.9 1178.72 149.6 1178.72 157.2V166.5C1172.52 153.7 1143.52 154.7 1143.52 175.1C1143.52 183.9 1151.92 190.5 1161.42 190.5C1171.52 190.5 1176.92 183.3 1178.72 176L1185.52 190H1186.62V158.5C1186.62 146.2 1176.72 141.9 1168.42 141.9ZM1163.62 188.6C1156.72 188.6 1150.72 182.5 1150.72 174.2C1150.72 154.6 1174.82 156.9 1178.72 168.4V170.8C1178.32 179.4 1172.92 188.6 1163.62 188.6Z" fill="#FFFCF6" fill-opacity="0.12"/>
<path d="M1114.05 152.6C1124.45 151.4 1134.15 147.4 1134.15 136.6C1134.15 122.6 1117.55 120 1104.65 120H1083.75V190H1108.95C1121.95 190 1138.55 185.3 1138.55 171.2C1138.55 159 1125.85 153.8 1114.05 152.6ZM1104.65 120.8C1121.05 120.8 1126.35 127.8 1126.35 136.6C1126.35 145.5 1121.05 152.4 1104.65 152.4H1091.55V120.8H1104.65ZM1108.95 189.3H1091.55V153.2H1108.95C1125.45 153.2 1130.65 162.4 1130.65 171.2C1130.65 180.1 1125.45 189.3 1108.95 189.3Z" fill="#FFFCF6" fill-opacity="0.12"/>
<path d="M1041.84 120V190H1049.74V120H1041.84Z" fill="#FFFCF6" fill-opacity="0.12"/>
<path d="M1034.11 176.1C1032.51 179 1027.11 187.7 1017.31 188.7C1007.11 189.8 998.711 184.2 995.011 173.7C993.311 168.9 993.111 163 994.311 157.7H1033.61C1032.21 145.6 1020.51 141.4 1012.11 141.9C1001.11 142.4 985.311 149.9 985.811 167.3C986.211 183.7 1000.81 191.1 1013.81 190.5C1025.71 189.9 1031.61 182.1 1034.81 176.4L1034.11 176.1ZM1007.51 143C1017.31 141.2 1025.11 148.2 1026.41 156.9H994.511C996.411 150.1 1000.71 144.3 1007.51 143Z" fill="#FFFCF6" fill-opacity="0.12"/>
<path d="M980.037 172.3C980.037 180.6 977.137 188.4 970.437 188.7C962.537 189.1 960.937 183.1 960.937 174.4V142.6H972.637V141.9H960.937V128.2H959.837L953.037 141.9H947.137V142.6H953.037V173C953.037 184.7 958.537 190.5 967.337 190.5C977.937 190.5 980.737 181.8 980.737 172.3H980.037Z" fill="#FFFCF6" fill-opacity="0.12"/>
<path d="M917.677 141.9C905.077 141.9 891.277 151 891.277 166.2C891.277 181.4 905.077 190.5 917.677 190.5C930.277 190.5 944.077 181.4 944.077 166.2C944.077 151 930.277 141.9 917.677 141.9ZM917.677 189.7C907.777 189.7 899.477 179.4 899.477 166.2C899.477 153 907.777 142.7 917.677 142.7C927.577 142.7 935.877 153 935.877 166.2C935.877 179.4 927.577 189.7 917.677 189.7Z" fill="#FFFCF6" fill-opacity="0.12"/>
<path d="M883.25 159.4C881.95 147.5 875.05 141.9 866.85 141.9C853.85 141.9 850.45 155.4 849.15 166.7V120H841.25V190H849.15V175.1C849.15 166.7 851.15 145.8 862.35 143.7C870.95 142 874.65 150.5 875.45 158C875.95 163.1 877.95 186.7 878.35 190H886.25C885.85 186.3 884.25 169.2 883.25 159.4Z" fill="#FFFCF6" fill-opacity="0.12"/>
<path d="M767.621 157L783.821 142.6H782.721L754.421 167.7V120H746.621V190H754.421V168.6L762.521 161.4L780.021 190H788.121L767.621 157Z" fill="#FFFCF6" fill-opacity="0.12"/>
<path d="M735.496 159.4C734.196 147.5 727.296 141.9 719.096 141.9C706.096 141.9 702.696 155.4 701.396 166.7V142.6H693.496V190H701.396V175.2C701.396 166.8 703.396 145.8 714.596 143.7C723.196 142 726.896 150.5 727.696 158C728.196 163.1 730.296 186.7 730.596 190H738.596C738.096 186.3 736.496 169.2 735.496 159.4Z" fill="#FFFCF6" fill-opacity="0.12"/>
<path d="M665.298 141.9C657.298 141.9 652.498 146.1 650.898 151.5L651.598 151.8C653.198 146.5 657.898 142.9 664.398 142.9C671.498 142.9 675.598 149.6 675.598 157.2V166.5C669.398 153.7 640.398 154.7 640.398 175.1C640.398 183.9 648.798 190.5 658.298 190.5C668.398 190.5 673.798 183.3 675.598 176L682.398 190H683.498V158.5C683.498 146.2 673.598 141.9 665.298 141.9ZM660.498 188.6C653.598 188.6 647.598 182.5 647.598 174.2C647.598 154.6 671.698 156.9 675.598 168.4V170.8C675.198 179.4 669.798 188.6 660.498 188.6Z" fill="#FFFCF6" fill-opacity="0.12"/>
<path d="M610.929 152.6C621.329 151.4 631.029 147.4 631.029 136.6C631.029 122.6 614.429 120 601.529 120H580.629V190H605.829C618.829 190 635.429 185.3 635.429 171.2C635.429 159 622.729 153.8 610.929 152.6ZM601.529 120.8C617.929 120.8 623.229 127.8 623.229 136.6C623.229 145.5 617.929 152.4 601.529 152.4H588.429V120.8H601.529ZM605.829 189.3H588.429V153.2H605.829C622.329 153.2 627.529 162.4 627.529 171.2C627.529 180.1 622.329 189.3 605.829 189.3Z" fill="#FFFCF6" fill-opacity="0.12"/>
<path d="M538.711 120V190H546.611V120H538.711Z" fill="#FFFCF6" fill-opacity="0.12"/>
<path d="M530.986 176.1C529.386 179 523.986 187.7 514.186 188.7C503.986 189.8 495.586 184.2 491.886 173.7C490.186 168.9 489.986 163 491.186 157.7H530.486C529.086 145.6 517.386 141.4 508.986 141.9C497.986 142.4 482.186 149.9 482.686 167.3C483.086 183.7 497.686 191.1 510.686 190.5C522.586 189.9 528.486 182.1 531.686 176.4L530.986 176.1ZM504.386 143C514.186 141.2 521.986 148.2 523.286 156.9H491.386C493.286 150.1 497.586 144.3 504.386 143Z" fill="#FFFCF6" fill-opacity="0.12"/>
<path d="M476.912 172.3C476.912 180.6 474.012 188.4 467.312 188.7C459.412 189.1 457.812 183.1 457.812 174.4V142.6H469.512V141.9H457.812V128.2H456.712L449.912 141.9H444.012V142.6H449.912V173C449.912 184.7 455.412 190.5 464.212 190.5C474.812 190.5 477.612 181.8 477.612 172.3H476.912Z" fill="#FFFCF6" fill-opacity="0.12"/>
<path d="M414.552 141.9C401.952 141.9 388.152 151 388.152 166.2C388.152 181.4 401.952 190.5 414.552 190.5C427.152 190.5 440.952 181.4 440.952 166.2C440.952 151 427.152 141.9 414.552 141.9ZM414.552 189.7C404.652 189.7 396.352 179.4 396.352 166.2C396.352 153 404.652 142.7 414.552 142.7C424.452 142.7 432.752 153 432.752 166.2C432.752 179.4 424.452 189.7 414.552 189.7Z" fill="#FFFCF6" fill-opacity="0.12"/>
<path d="M380.125 159.4C378.825 147.5 371.925 141.9 363.725 141.9C350.725 141.9 347.325 155.4 346.025 166.7V120H338.125V190H346.025V175.1C346.025 166.7 348.025 145.8 359.225 143.7C367.825 142 371.525 150.5 372.325 158C372.825 163.1 374.825 186.7 375.225 190H383.125C382.725 186.3 381.125 169.2 380.125 159.4Z" fill="#FFFCF6" fill-opacity="0.12"/>
<path d="M287.543 157L303.743 142.6H302.643L274.343 167.7V120H266.543V190H274.343V168.6L282.443 161.4L299.943 190H308.043L287.543 157Z" fill="#FFFCF6" fill-opacity="0.12"/>
<path d="M255.418 159.4C254.118 147.5 247.218 141.9 239.018 141.9C226.018 141.9 222.618 155.4 221.318 166.7V142.6H213.418V190H221.318V175.2C221.318 166.8 223.318 145.8 234.518 143.7C243.118 142 246.818 150.5 247.618 158C248.118 163.1 250.218 186.7 250.518 190H258.518C258.018 186.3 256.418 169.2 255.418 159.4Z" fill="#FFFCF6" fill-opacity="0.12"/>
<path d="M185.22 141.9C177.22 141.9 172.42 146.1 170.82 151.5L171.52 151.8C173.12 146.5 177.82 142.9 184.32 142.9C191.42 142.9 195.52 149.6 195.52 157.2V166.5C189.32 153.7 160.32 154.7 160.32 175.1C160.32 183.9 168.72 190.5 178.22 190.5C188.32 190.5 193.72 183.3 195.52 176L202.32 190H203.42V158.5C203.42 146.2 193.52 141.9 185.22 141.9ZM180.42 188.6C173.52 188.6 167.52 182.5 167.52 174.2C167.52 154.6 191.62 156.9 195.52 168.4V170.8C195.12 179.4 189.72 188.6 180.42 188.6Z" fill="#FFFCF6" fill-opacity="0.12"/>
<path d="M130.851 152.6C141.251 151.4 150.951 147.4 150.951 136.6C150.951 122.6 134.351 120 121.451 120H100.551V190H125.751C138.751 190 155.351 185.3 155.351 171.2C155.351 159 142.651 153.8 130.851 152.6ZM121.451 120.8C137.851 120.8 143.151 127.8 143.151 136.6C143.151 145.5 137.851 152.4 121.451 152.4H108.351V120.8H121.451ZM125.751 189.3H108.351V153.2H125.751C142.251 153.2 147.451 162.4 147.451 171.2C147.451 180.1 142.251 189.3 125.751 189.3Z" fill="#FFFCF6" fill-opacity="0.12"/>
<path d="M35.5859 120V190H43.4859V120H35.5859Z" fill="#FFFCF6" fill-opacity="0.12"/>
<path d="M27.8609 176.1C26.2609 179 20.8609 187.7 11.0609 188.7C0.86094 189.8 -7.53906 184.2 -11.2391 173.7C-12.9391 168.9 -13.1391 163 -11.9391 157.7H27.3609C25.9609 145.6 14.2609 141.4 5.86093 141.9C-5.13907 142.4 -20.9391 149.9 -20.4391 167.3C-20.0391 183.7 -5.43906 191.1 7.56094 190.5C19.4609 189.9 25.3609 182.1 28.5609 176.4L27.8609 176.1ZM1.26094 143C11.0609 141.2 18.8609 148.2 20.1609 156.9H-11.7391C-9.83906 150.1 -5.53906 144.3 1.26094 143Z" fill="#FFFCF6" fill-opacity="0.12"/>
<path d="M1444.88 52.3C1444.88 60.6 1441.98 68.4 1435.28 68.7C1427.38 69.1 1425.78 63.1 1425.78 54.4V22.5999H1437.48V21.9H1425.78V8.19995H1424.68L1417.88 21.9H1411.98V22.5999H1417.88V53C1417.88 64.7 1423.38 70.5 1432.18 70.5C1442.78 70.5 1445.58 61.8 1445.58 52.3H1444.88Z" fill="#FFFCF6" fill-opacity="0.12"/>
<path d="M1382.52 21.8999C1369.92 21.8999 1356.12 30.9999 1356.12 46.1999C1356.12 61.3999 1369.92 70.4999 1382.52 70.4999C1395.12 70.4999 1408.92 61.3999 1408.92 46.1999C1408.92 30.9999 1395.12 21.8999 1382.52 21.8999ZM1382.52 69.6999C1372.62 69.6999 1364.32 59.3999 1364.32 46.1999C1364.32 32.9999 1372.62 22.6999 1382.52 22.6999C1392.42 22.6999 1400.72 32.9999 1400.72 46.1999C1400.72 59.3999 1392.42 69.6999 1382.52 69.6999Z" fill="#FFFCF6" fill-opacity="0.12"/>
<path d="M1348.09 39.4C1346.79 27.5 1339.89 21.9 1331.69 21.9C1318.69 21.9 1315.29 35.4 1313.99 46.7V0L1306.09 0V70H1313.99V55.1C1313.99 46.7 1315.99 25.8 1327.19 23.7C1335.79 22 1339.49 30.5 1340.29 38C1340.79 43.1 1342.79 66.7 1343.19 70H1351.09C1350.69 66.3 1349.09 49.2 1348.09 39.4Z" fill="#FFFCF6" fill-opacity="0.12"/>
<path d="M1255.51 37L1271.71 22.6H1270.61L1242.31 47.7V0L1234.51 0V70H1242.31V48.6L1250.41 41.4L1267.91 70H1276.01L1255.51 37Z" fill="#FFFCF6" fill-opacity="0.12"/>
<path d="M1223.39 39.3999C1222.09 27.4999 1215.19 21.8999 1206.99 21.8999C1193.99 21.8999 1190.59 35.3999 1189.29 46.6999V22.5999H1181.39V69.9999H1189.29V55.1999C1189.29 46.7999 1191.29 25.7999 1202.49 23.6999C1211.09 21.9999 1214.79 30.4999 1215.59 37.9999C1216.09 43.0999 1218.19 66.6999 1218.49 69.9999H1226.49C1225.99 66.2999 1224.39 49.1999 1223.39 39.3999Z" fill="#FFFCF6" fill-opacity="0.12"/>
<path d="M1153.19 21.8999C1145.19 21.8999 1140.39 26.0999 1138.79 31.4999L1139.49 31.7999C1141.09 26.4999 1145.79 22.8999 1152.29 22.8999C1159.39 22.8999 1163.49 29.5999 1163.49 37.1999V46.4999C1157.29 33.6999 1128.29 34.6999 1128.29 55.0999C1128.29 63.8999 1136.69 70.4999 1146.19 70.4999C1156.29 70.4999 1161.69 63.2999 1163.49 55.9999L1170.29 69.9999H1171.39V38.4999C1171.39 26.1999 1161.49 21.8999 1153.19 21.8999ZM1148.39 68.5999C1141.49 68.5999 1135.49 62.4999 1135.49 54.1999C1135.49 34.5999 1159.59 36.8999 1163.49 48.3999V50.7999C1163.09 59.3999 1157.69 68.5999 1148.39 68.5999Z" fill="#FFFCF6" fill-opacity="0.12"/>
<path d="M1098.82 32.6C1109.22 31.4 1118.92 27.4 1118.92 16.6C1118.92 2.6 1102.32 0 1089.42 0L1068.52 0V70H1093.72C1106.72 70 1123.32 65.3 1123.32 51.2C1123.32 39 1110.62 33.8 1098.82 32.6ZM1089.42 0.800001C1105.82 0.800001 1111.12 7.8 1111.12 16.6C1111.12 25.5 1105.82 32.4 1089.42 32.4H1076.32V0.800001L1089.42 0.800001ZM1093.72 69.3H1076.32V33.2H1093.72C1110.22 33.2 1115.42 42.4 1115.42 51.2C1115.42 60.1 1110.22 69.3 1093.72 69.3Z" fill="#FFFCF6" fill-opacity="0.12"/>
<path d="M1006.47 57.6001C997.473 59.0001 990.073 54.3001 987.373 45.3001C984.573 36.3001 987.773 26.0001 996.473 24.1001C1003.17 22.7001 1010.77 26.4001 1014.57 33.0001V26.9001C1013.17 25.7001 1007.27 22.9001 1001.67 22.9001C991.573 22.9001 982.473 31.1001 982.473 41.2001C982.473 51.2001 991.173 59.4001 1001.27 59.4001C1010.27 59.4001 1015.17 54.7001 1017.97 49.0001L1017.57 48.8001C1014.97 54.0001 1010.97 57.0001 1006.47 57.6001ZM999.873 8.1001C981.273 8.1001 966.273 23.1001 966.273 41.7001C966.273 60.2001 981.273 75.3001 999.873 75.3001C1018.37 75.3001 1033.47 60.2001 1033.47 41.7001C1033.47 23.1001 1018.37 8.1001 999.873 8.1001ZM999.873 74.4001C981.773 74.4001 967.073 59.7001 967.073 41.7001C967.073 23.6001 981.773 8.9001 999.873 8.9001C1017.97 8.9001 1032.67 23.6001 1032.67 41.7001C1032.67 59.7001 1017.97 74.4001 999.873 74.4001Z" fill="#FFFCF6"/>
<path d="M947.402 0V70H955.302V0L947.402 0Z" fill="#FFFCF6"/>
<path d="M939.677 56.1C938.077 59 932.677 67.7 922.877 68.7C912.677 69.8 904.277 64.2 900.577 53.7C898.877 48.9 898.677 43 899.877 37.7H939.177C937.777 25.6 926.077 21.4 917.677 21.9C906.677 22.4 890.877 29.9 891.377 47.3C891.777 63.7 906.377 71.1 919.377 70.5C931.277 69.9 937.177 62.1 940.377 56.4L939.677 56.1ZM913.077 23C922.877 21.2 930.677 28.2 931.977 36.9H900.077C901.977 30.1 906.277 24.3 913.077 23Z" fill="#FFFCF6"/>
<path d="M885.603 52.3C885.603 60.6 882.703 68.4 876.003 68.7C868.103 69.1 866.503 63.1 866.503 54.4V22.5999H878.203V21.9H866.503V8.19995H865.403L858.603 21.9H852.703V22.5999H858.603V53C858.603 64.7 864.103 70.5 872.903 70.5C883.503 70.5 886.303 61.8 886.303 52.3H885.603Z" fill="#FFFCF6"/>
<path d="M823.244 21.8999C810.644 21.8999 796.844 30.9999 796.844 46.1999C796.844 61.3999 810.644 70.4999 823.244 70.4999C835.844 70.4999 849.644 61.3999 849.644 46.1999C849.644 30.9999 835.844 21.8999 823.244 21.8999ZM823.244 69.6999C813.344 69.6999 805.044 59.3999 805.044 46.1999C805.044 32.9999 813.344 22.6999 823.244 22.6999C833.144 22.6999 841.444 32.9999 841.444 46.1999C841.444 59.3999 833.144 69.6999 823.244 69.6999Z" fill="#FFFCF6"/>
<path d="M788.816 39.4C787.516 27.5 780.616 21.9 772.416 21.9C759.416 21.9 756.016 35.4 754.716 46.7V0L746.816 0V70H754.716V55.1C754.716 46.7 756.716 25.8 767.916 23.7C776.516 22 780.216 30.5 781.016 38C781.516 43.1 783.516 66.7 783.916 70H791.816C791.416 66.3 789.816 49.2 788.816 39.4Z" fill="#FFFCF6"/>
<path d="M697.328 71.8999V72.6999H735.828V71.8999H697.328Z" fill="#FFFCF6"/>
<path d="M646.84 71.8999V72.6999H685.34V71.8999H646.84Z" fill="#FFFCF6"/>
<path d="M618.305 37L634.505 22.6H633.405L605.105 47.7V0L597.305 0V70H605.105V48.6L613.205 41.4L630.705 70H638.805L618.305 37Z" fill="#FFFCF6"/>
<path d="M586.18 39.3999C584.88 27.4999 577.98 21.8999 569.78 21.8999C556.78 21.8999 553.38 35.3999 552.08 46.6999V22.5999H544.18V69.9999H552.08V55.1999C552.08 46.7999 554.08 25.7999 565.28 23.6999C573.88 21.9999 577.58 30.4999 578.38 37.9999C578.88 43.0999 580.98 66.6999 581.28 69.9999H589.28C588.78 66.2999 587.18 49.1999 586.18 39.3999Z" fill="#FFFCF6"/>
<path d="M515.982 21.8999C507.982 21.8999 503.182 26.0999 501.582 31.4999L502.282 31.7999C503.882 26.4999 508.582 22.8999 515.082 22.8999C522.182 22.8999 526.282 29.5999 526.282 37.1999V46.4999C520.082 33.6999 491.082 34.6999 491.082 55.0999C491.082 63.8999 499.482 70.4999 508.982 70.4999C519.082 70.4999 524.482 63.2999 526.282 55.9999L533.082 69.9999H534.182V38.4999C534.182 26.1999 524.282 21.8999 515.982 21.8999ZM511.182 68.5999C504.282 68.5999 498.282 62.4999 498.282 54.1999C498.282 34.5999 522.382 36.8999 526.282 48.3999V50.7999C525.882 59.3999 520.482 68.5999 511.182 68.5999Z" fill="#FFFCF6"/>
<path d="M461.612 32.6C472.012 31.4 481.713 27.4 481.713 16.6C481.713 2.6 465.113 0 452.213 0L431.312 0V70H456.513C469.513 70 486.112 65.3 486.112 51.2C486.112 39 473.412 33.8 461.612 32.6ZM452.213 0.800001C468.613 0.800001 473.912 7.8 473.912 16.6C473.912 25.5 468.613 32.4 452.213 32.4H439.112V0.800001L452.213 0.800001ZM456.513 69.3H439.112V33.2H456.513C473.013 33.2 478.213 42.4 478.213 51.2C478.213 60.1 473.013 69.3 456.513 69.3Z" fill="#FFFCF6"/>
<path d="M389.395 0V70H397.295V0L389.395 0Z" fill="#FFFCF6" fill-opacity="0.12"/>
<path d="M381.67 56.1C380.07 59 374.67 67.7 364.87 68.7C354.67 69.8 346.27 64.2 342.57 53.7C340.87 48.9 340.67 43 341.87 37.7H381.17C379.77 25.6 368.07 21.4 359.67 21.9C348.67 22.4 332.87 29.9 333.37 47.3C333.77 63.7 348.37 71.1 361.37 70.5C373.27 69.9 379.17 62.1 382.37 56.4L381.67 56.1ZM355.07 23C364.87 21.2 372.67 28.2 373.97 36.9H342.07C343.97 30.1 348.27 24.3 355.07 23Z" fill="#FFFCF6" fill-opacity="0.12"/>
<path d="M327.595 52.3C327.595 60.6 324.695 68.4 317.995 68.7C310.095 69.1 308.495 63.1 308.495 54.4V22.5999H320.195V21.9H308.495V8.19995H307.395L300.595 21.9H294.695V22.5999H300.595V53C300.595 64.7 306.095 70.5 314.895 70.5C325.495 70.5 328.295 61.8 328.295 52.3H327.595Z" fill="#FFFCF6" fill-opacity="0.12"/>
<path d="M265.236 21.8999C252.636 21.8999 238.836 30.9999 238.836 46.1999C238.836 61.3999 252.636 70.4999 265.236 70.4999C277.836 70.4999 291.636 61.3999 291.636 46.1999C291.636 30.9999 277.836 21.8999 265.236 21.8999ZM265.236 69.6999C255.336 69.6999 247.036 59.3999 247.036 46.1999C247.036 32.9999 255.336 22.6999 265.236 22.6999C275.136 22.6999 283.436 32.9999 283.436 46.1999C283.436 59.3999 275.136 69.6999 265.236 69.6999Z" fill="#FFFCF6" fill-opacity="0.12"/>
<path d="M230.809 39.4C229.509 27.5 222.609 21.9 214.409 21.9C201.409 21.9 198.009 35.4 196.709 46.7V0L188.809 0V70H196.709V55.1C196.709 46.7 198.709 25.8 209.909 23.7C218.509 22 222.209 30.5 223.009 38C223.509 43.1 225.509 66.7 225.909 70H233.809C233.409 66.3 231.809 49.2 230.809 39.4Z" fill="#FFFCF6" fill-opacity="0.12"/>
<path d="M138.227 37L154.427 22.6H153.327L125.027 47.7V0L117.227 0V70H125.027V48.6L133.127 41.4L150.627 70H158.727L138.227 37Z" fill="#FFFCF6" fill-opacity="0.12"/>
<path d="M106.102 39.3999C104.802 27.4999 97.9016 21.8999 89.7016 21.8999C76.7016 21.8999 73.3016 35.3999 72.0016 46.6999V22.5999H64.1016V69.9999H72.0016V55.1999C72.0016 46.7999 74.0016 25.7999 85.2016 23.6999C93.8016 21.9999 97.5016 30.4999 98.3016 37.9999C98.8016 43.0999 100.902 66.6999 101.202 69.9999H109.202C108.702 66.2999 107.102 49.1999 106.102 39.3999Z" fill="#FFFCF6" fill-opacity="0.12"/>
<path d="M35.9039 21.8999C27.9039 21.8999 23.1039 26.0999 21.5039 31.4999L22.2039 31.7999C23.8039 26.4999 28.5039 22.8999 35.0039 22.8999C42.1039 22.8999 46.2039 29.5999 46.2039 37.1999V46.4999C40.0039 33.6999 11.0039 34.6999 11.0039 55.0999C11.0039 63.8999 19.4039 70.4999 28.9039 70.4999C39.0039 70.4999 44.4039 63.2999 46.2039 55.9999L53.0039 69.9999H54.1039V38.4999C54.1039 26.1999 44.2039 21.8999 35.9039 21.8999ZM31.1039 68.5999C24.2039 68.5999 18.2039 62.4999 18.2039 54.1999C18.2039 34.5999 42.3039 36.8999 46.2039 48.3999V50.7999C45.8039 59.3999 40.4039 68.5999 31.1039 68.5999Z" fill="#FFFCF6" fill-opacity="0.12"/>
<path d="M-18.4656 32.6C-8.06562 31.4 1.63437 27.4 1.63437 16.6C1.63437 2.6 -14.9656 0 -27.8656 0L-48.7656 0V70H-23.5656C-10.5656 70 6.03438 65.3 6.03438 51.2C6.03438 39 -6.66562 33.8 -18.4656 32.6ZM-27.8656 0.800001C-11.4656 0.800001 -6.16562 7.8 -6.16562 16.6C-6.16562 25.5 -11.4656 32.4 -27.8656 32.4H-40.9656V0.800001L-27.8656 0.800001ZM-23.5656 69.3H-40.9656V33.2H-23.5656C-7.06563 33.2 -1.86562 42.4 -1.86562 51.2C-1.86562 60.1 -7.06563 69.3 -23.5656 69.3Z" fill="#FFFCF6" fill-opacity="0.12"/>
</svg>
