<svg width="249" height="70" viewBox="0 0 249 70" fill="none" xmlns="http://www.w3.org/2000/svg">
<path d="M38.532 45.4419H40.43L48.126 25.9939H46.228L38.532 45.4419ZM52.1562 36.4979H57.7982C59.8782 36.4979 61.8282 37.1739 61.8282 39.5919C61.8282 41.6199 60.4762 42.9199 58.3442 42.9199H52.1562V36.4979ZM49.6862 44.9999H58.6562C62.3482 44.9999 64.2982 42.3999 64.2982 39.6699C64.2982 37.3819 63.0502 35.6659 60.7622 35.1979V35.1459C62.4782 34.4439 63.5182 32.9619 63.5182 30.9859C63.5182 29.1659 62.5562 27.8399 61.3342 27.1119C60.2162 26.4359 58.0582 26.4359 56.4202 26.4359H49.6862V44.9999ZM52.1562 28.5159H57.0962C59.2282 28.5159 61.0482 28.8799 61.0482 31.4539C61.0482 33.4039 59.9042 34.4179 57.0962 34.4179H52.1562V28.5159ZM66.445 35.7179C66.445 40.7619 69.435 45.4419 75.337 45.4419C81.239 45.4419 84.229 40.7619 84.229 35.7179C84.229 30.6739 81.239 25.9939 75.337 25.9939C69.435 25.9939 66.445 30.6739 66.445 35.7179ZM68.915 35.7179C68.915 31.9739 70.813 28.0739 75.337 28.0739C79.861 28.0739 81.759 31.9739 81.759 35.7179C81.759 39.4619 79.861 43.3619 75.337 43.3619C70.813 43.3619 68.915 39.4619 68.915 35.7179ZM86.1989 35.7179C86.1989 40.7619 89.1889 45.4419 95.0909 45.4419C100.993 45.4419 103.983 40.7619 103.983 35.7179C103.983 30.6739 100.993 25.9939 95.0909 25.9939C89.1889 25.9939 86.1989 30.6739 86.1989 35.7179ZM88.6689 35.7179C88.6689 31.9739 90.5669 28.0739 95.0909 28.0739C99.6149 28.0739 101.513 31.9739 101.513 35.7179C101.513 39.4619 99.6149 43.3619 95.0909 43.3619C90.5669 43.3619 88.6689 39.4619 88.6689 35.7179ZM106.993 44.9999H109.463V38.4999L112.557 35.6139L119.265 44.9999H122.385L114.247 33.9239L122.073 26.4359H118.875L109.463 35.6919V26.4359H106.993V44.9999ZM134.041 34.9899V28.5159H140.177C142.491 28.5159 143.479 29.8679 143.479 31.6879C143.479 34.3919 141.503 34.9899 139.189 34.9899H134.041ZM131.571 44.9999H134.041V37.0699H140.073C142.465 37.0699 142.907 38.6039 143.167 40.4239C143.531 42.2439 143.141 44.2459 143.843 44.9999H146.599C145.559 43.7259 145.663 41.6979 145.507 39.8779C145.325 38.0579 144.883 36.4719 142.725 36.0559V36.0039C144.961 35.3799 145.949 33.5339 145.949 31.2979C145.949 28.3339 143.791 26.4359 140.307 26.4359H131.571V44.9999ZM148.33 35.7179C148.33 40.7619 151.32 45.4419 157.222 45.4419C163.124 45.4419 166.114 40.7619 166.114 35.7179C166.114 30.6739 163.124 25.9939 157.222 25.9939C151.32 25.9939 148.33 30.6739 148.33 35.7179ZM150.8 35.7179C150.8 31.9739 152.698 28.0739 157.222 28.0739C161.746 28.0739 163.644 31.9739 163.644 35.7179C163.644 39.4619 161.746 43.3619 157.222 43.3619C152.698 43.3619 150.8 39.4619 150.8 35.7179ZM168.084 35.7179C168.084 40.7619 171.074 45.4419 176.976 45.4419C182.878 45.4419 185.868 40.7619 185.868 35.7179C185.868 30.6739 182.878 25.9939 176.976 25.9939C171.074 25.9939 168.084 30.6739 168.084 35.7179ZM170.554 35.7179C170.554 31.9739 172.452 28.0739 176.976 28.0739C181.5 28.0739 183.398 31.9739 183.398 35.7179C183.398 39.4619 181.5 43.3619 176.976 43.3619C172.452 43.3619 170.554 39.4619 170.554 35.7179ZM188.93 44.9999H191.27V29.5559H191.322L197.12 44.9999H199.226L205.024 29.5559H205.076V44.9999H207.416V26.4359H204.036L198.16 42.0359L192.31 26.4359H188.93V44.9999Z" fill="#1B3B36"/>
<path d="M38.532 45.4419H40.43L48.126 25.9939H46.228L38.532 45.4419ZM52.1562 36.4979H57.7982C59.8782 36.4979 61.8282 37.1739 61.8282 39.5919C61.8282 41.6199 60.4762 42.9199 58.3442 42.9199H52.1562V36.4979ZM49.6862 44.9999H58.6562C62.3482 44.9999 64.2982 42.3999 64.2982 39.6699C64.2982 37.3819 63.0502 35.6659 60.7622 35.1979V35.1459C62.4782 34.4439 63.5182 32.9619 63.5182 30.9859C63.5182 29.1659 62.5562 27.8399 61.3342 27.1119C60.2162 26.4359 58.0582 26.4359 56.4202 26.4359H49.6862V44.9999ZM52.1562 28.5159H57.0962C59.2282 28.5159 61.0482 28.8799 61.0482 31.4539C61.0482 33.4039 59.9042 34.4179 57.0962 34.4179H52.1562V28.5159ZM66.445 35.7179C66.445 40.7619 69.435 45.4419 75.337 45.4419C81.239 45.4419 84.229 40.7619 84.229 35.7179C84.229 30.6739 81.239 25.9939 75.337 25.9939C69.435 25.9939 66.445 30.6739 66.445 35.7179ZM68.915 35.7179C68.915 31.9739 70.813 28.0739 75.337 28.0739C79.861 28.0739 81.759 31.9739 81.759 35.7179C81.759 39.4619 79.861 43.3619 75.337 43.3619C70.813 43.3619 68.915 39.4619 68.915 35.7179ZM86.1989 35.7179C86.1989 40.7619 89.1889 45.4419 95.0909 45.4419C100.993 45.4419 103.983 40.7619 103.983 35.7179C103.983 30.6739 100.993 25.9939 95.0909 25.9939C89.1889 25.9939 86.1989 30.6739 86.1989 35.7179ZM88.6689 35.7179C88.6689 31.9739 90.5669 28.0739 95.0909 28.0739C99.6149 28.0739 101.513 31.9739 101.513 35.7179C101.513 39.4619 99.6149 43.3619 95.0909 43.3619C90.5669 43.3619 88.6689 39.4619 88.6689 35.7179ZM106.993 44.9999H109.463V38.4999L112.557 35.6139L119.265 44.9999H122.385L114.247 33.9239L122.073 26.4359H118.875L109.463 35.6919V26.4359H106.993V44.9999ZM134.041 34.9899V28.5159H140.177C142.491 28.5159 143.479 29.8679 143.479 31.6879C143.479 34.3919 141.503 34.9899 139.189 34.9899H134.041ZM131.571 44.9999H134.041V37.0699H140.073C142.465 37.0699 142.907 38.6039 143.167 40.4239C143.531 42.2439 143.141 44.2459 143.843 44.9999H146.599C145.559 43.7259 145.663 41.6979 145.507 39.8779C145.325 38.0579 144.883 36.4719 142.725 36.0559V36.0039C144.961 35.3799 145.949 33.5339 145.949 31.2979C145.949 28.3339 143.791 26.4359 140.307 26.4359H131.571V44.9999ZM148.33 35.7179C148.33 40.7619 151.32 45.4419 157.222 45.4419C163.124 45.4419 166.114 40.7619 166.114 35.7179C166.114 30.6739 163.124 25.9939 157.222 25.9939C151.32 25.9939 148.33 30.6739 148.33 35.7179ZM150.8 35.7179C150.8 31.9739 152.698 28.0739 157.222 28.0739C161.746 28.0739 163.644 31.9739 163.644 35.7179C163.644 39.4619 161.746 43.3619 157.222 43.3619C152.698 43.3619 150.8 39.4619 150.8 35.7179ZM168.084 35.7179C168.084 40.7619 171.074 45.4419 176.976 45.4419C182.878 45.4419 185.868 40.7619 185.868 35.7179C185.868 30.6739 182.878 25.9939 176.976 25.9939C171.074 25.9939 168.084 30.6739 168.084 35.7179ZM170.554 35.7179C170.554 31.9739 172.452 28.0739 176.976 28.0739C181.5 28.0739 183.398 31.9739 183.398 35.7179C183.398 39.4619 181.5 43.3619 176.976 43.3619C172.452 43.3619 170.554 39.4619 170.554 35.7179ZM188.93 44.9999H191.27V29.5559H191.322L197.12 44.9999H199.226L205.024 29.5559H205.076V44.9999H207.416V26.4359H204.036L198.16 42.0359L192.31 26.4359H188.93V44.9999Z" fill="black" fill-opacity="0.2"/>
<rect opacity="0.5" x="0.5" y="0.499878" width="248" height="69" rx="34.5" stroke="#313F38"/>
</svg>
