<svg width="249" height="70" viewBox="0 0 249 70" fill="none" xmlns="http://www.w3.org/2000/svg">
<path d="M190.593 35.6743C190.945 35.6303 191.341 35.6083 191.715 35.6083C193.563 35.6083 195.037 36.6423 195.037 38.6003C195.037 40.4923 193.475 41.6143 191.649 41.6143C189.515 41.6143 188.393 40.2063 188.327 38.1823H186.457C186.391 41.3943 188.481 43.2643 191.649 43.2643C194.575 43.2643 197.017 41.6363 197.017 38.5123C197.017 36.6423 196.093 35.1463 194.201 34.7283V34.6843C195.389 34.1343 196.357 32.9463 196.357 31.5823C196.357 28.7003 194.311 27.4023 191.605 27.4023C188.481 27.4023 186.897 29.4703 186.787 32.4403H188.657C188.679 30.6143 189.559 29.0523 191.605 29.0523C193.189 29.0523 194.377 29.9323 194.377 31.5603C194.377 33.2543 192.991 34.1123 191.407 34.1123C191.143 34.1123 190.879 34.1123 190.593 34.0903V35.6743Z" fill="#FFFCF6"/>
<path d="M184.77 27.666H174.672V29.426H182.856C179.578 32.902 177.048 37.72 176.696 43H178.786C179.072 38.116 181.624 32.396 184.77 29.272V27.666Z" fill="#FFFCF6"/>
<path d="M170.346 32.6163C170.346 34.4643 169.114 36.0483 167.156 36.0483C165.352 36.0483 164.076 34.4643 164.076 32.7483C164.076 30.8343 164.912 29.0523 167.134 29.0523C169.224 29.0523 170.346 30.7023 170.346 32.6163ZM162.426 39.2383C162.668 41.9223 164.538 43.2643 167.156 43.2643C170.94 43.2643 172.568 40.2503 172.568 34.8603C172.568 28.9643 170.126 27.4023 167.222 27.4023C164.208 27.4023 162.096 29.4703 162.096 32.4843C162.096 35.5643 163.856 37.6983 167.024 37.6983C168.542 37.6983 169.928 36.8623 170.632 35.5423L170.676 35.5863C170.566 39.6123 169.444 41.6143 167.156 41.6143C165.66 41.6143 164.428 40.7563 164.296 39.2383H162.426Z" fill="#FFFCF6"/>
<path d="M156.955 27.4023H155.525C155.107 29.7563 153.171 30.3283 151.037 30.3283V31.8243H155.085V43.0003H156.955V27.4023Z" fill="#FFFCF6"/>
<path d="M140.446 39.3923C140.116 40.8663 139.038 41.6143 137.498 41.6143C135.012 41.6143 133.89 39.8543 133.956 37.8743H142.47C142.58 35.1243 141.348 31.3623 137.322 31.3623C134.22 31.3623 131.976 33.8703 131.976 37.2803C132.086 40.7563 133.802 43.2643 137.432 43.2643C139.984 43.2643 141.788 41.9003 142.294 39.3923H140.446ZM133.956 36.2243C134.088 34.4863 135.254 33.0123 137.212 33.0123C139.06 33.0123 140.402 34.4423 140.49 36.2243H133.956Z" fill="#FFFCF6"/>
<path d="M130.433 35.2783C130.169 32.5723 128.101 31.3623 125.527 31.3623C121.919 31.3623 120.159 34.0463 120.159 37.4563C120.159 40.8443 122.007 43.2643 125.483 43.2643C128.343 43.2643 130.081 41.6143 130.499 38.8423H128.585C128.343 40.5583 127.265 41.6143 125.461 41.6143C123.085 41.6143 122.139 39.5463 122.139 37.4563C122.139 35.1463 122.975 33.0123 125.681 33.0123C127.221 33.0123 128.211 33.8483 128.497 35.2783H130.433Z" fill="#FFFCF6"/>
<path d="M108.551 43.0003H110.421V36.5763C110.421 34.5303 111.521 33.0123 113.787 33.0123C115.217 33.0123 116.097 33.9143 116.097 35.3003V43.0003H117.967V35.5203C117.967 33.0783 117.043 31.3623 114.051 31.3623C112.423 31.3623 111.147 32.0223 110.355 33.4303H110.311V31.6263H108.551V43.0003Z" fill="#FFFCF6"/>
<path d="M103.784 43H105.654V31.626H103.784V43ZM105.654 27.292H103.784V29.58H105.654V27.292Z" fill="#FFFCF6"/>
<path d="M100.782 31.89C100.65 28.436 98.208 26.918 94.996 26.918C92.136 26.918 89.298 28.326 89.298 31.516C89.298 34.398 91.828 35.124 94.336 35.674C96.844 36.224 99.352 36.598 99.352 38.754C99.352 41.02 97.262 41.614 95.37 41.614C92.994 41.614 90.794 40.47 90.794 37.83H88.814C88.814 41.658 91.784 43.374 95.304 43.374C98.164 43.374 101.442 42.032 101.442 38.688C101.442 35.608 98.934 34.728 96.426 34.156C93.896 33.584 91.388 33.298 91.388 31.362C91.388 29.316 93.148 28.678 94.908 28.678C97.064 28.678 98.56 29.646 98.802 31.89H100.782Z" fill="#FFFCF6"/>
<path d="M47.5 18L48.8519 31.3391L57.7862 21.3422L51.0394 32.9284L64.1435 30.0922L51.875 35.5L64.1435 40.9078L51.0394 38.0716L57.7862 49.6578L48.8519 39.6609L47.5 53L46.148 39.6609L37.2138 49.6578L43.9605 38.0716L30.8565 40.9078L43.125 35.5L30.8565 30.0922L43.9605 32.9284L37.2138 21.3422L46.148 31.3391L47.5 18Z" fill="#FCD043"/>
<path opacity="0.32" d="M0.5 35C0.5 15.9462 15.9462 0.5 35 0.5H124.5H214C233.054 0.5 248.5 15.9462 248.5 35C248.5 54.0538 233.054 69.5 214 69.5H35C15.9462 69.5 0.5 54.0538 0.5 35Z" stroke="#FFFCF6"/>
</svg>
